<svg width="36" height="36" viewBox="0 0 36 36" fill="none" xmlns="http://www.w3.org/2000/svg">
<mask id="mask0_1898_5050" style="mask-type:alpha" maskUnits="userSpaceOnUse" x="1" y="0" width="33" height="36">
<path d="M17.6241 0L1.66992 8.92717L1.68194 26.9686L17.5745 36L33.579 26.976V8.92717L17.6241 0Z" fill="#FF00FF"/>
</mask>
<g mask="url(#mask0_1898_5050)">
<path d="M32.4536 9.5874V26.3189L17.5767 34.7066L2.80518 26.313L2.79492 9.58448L17.622 1.2876L32.4536 9.5874Z" fill="#D2FB95" stroke="#AAD36D" stroke-width="1.5"/>
<path d="M32.0786 9.80566V26.0991L17.5767 34.2759L3.18018 26.0947L3.16992 9.80566L17.6235 1.71826L32.0786 9.80566Z" stroke="#AAD36D" stroke-width="2"/>
<path d="M17.6238 13.3167L19.7891 10.6684C19.7957 10.6686 23.5071 10.7475 27.2011 12.4666C26.2536 13.8952 24.3751 14.5986 24.3751 14.5986C24.2476 13.3399 23.3643 13.0315 20.5641 13.0315L17.6262 29.625L14.6646 13.0291C11.8831 13.0311 11.0009 13.3395 10.8726 14.5983C10.8651 14.5955 8.99144 13.892 8.04671 12.4662C11.7435 10.7457 15.4584 10.668 15.4584 10.668L17.6238 13.3167ZM17.6245 8.625C20.7117 8.63806 24.2969 9.15861 28.125 10.6797C28.1245 10.6811 28.0037 11.0552 27.5366 11.8996C24.0347 10.3668 20.6137 9.87948 17.625 9.90243C14.6363 9.87948 11.2143 10.3668 7.71299 11.8996C7.29671 11.1419 7.12577 10.6817 7.125 10.6797C10.9527 9.1587 14.5376 8.63805 17.6245 8.625Z" fill="black"/>
</g>
</svg>
