<svg width="56" height="56" viewBox="0 0 56 56" fill="none" xmlns="http://www.w3.org/2000/svg">
<path d="M22.5873 30.7767L28.0007 26.67L33.3907 30.7767L31.3373 24.1267L36.7507 19.8333H30.124L28.0007 13.2767L25.8773 19.8333H19.2507L24.6407 24.1267L22.5873 30.7767ZM46.6673 22.1667C46.6673 11.8533 38.314 3.5 28.0007 3.5C17.6873 3.5 9.33398 11.8533 9.33398 22.1667C9.33398 26.9033 11.1073 31.1967 14.0007 34.4867V52.5L28.0007 47.8333L42.0006 52.5V34.4867C44.894 31.1967 46.6673 26.9033 46.6673 22.1667ZM28.0007 8.16667C35.724 8.16667 42.0006 14.4433 42.0006 22.1667C42.0006 29.89 35.724 36.1667 28.0007 36.1667C20.2773 36.1667 14.0007 29.89 14.0007 22.1667C14.0007 14.4433 20.2773 8.16667 28.0007 8.16667ZM28.0007 43.1667L18.6673 45.5467V38.3133C21.4207 39.9 24.594 40.8333 28.0007 40.8333C31.4073 40.8333 34.5807 39.9 37.334 38.3133V45.5467L28.0007 43.1667Z" fill="currentColor"/>
</svg>
