<svg width="93" height="84" viewBox="0 0 93 84" fill="none" xmlns="http://www.w3.org/2000/svg">
<circle cx="50.2754" cy="42" r="42" fill="#59977A"/>
<path d="M73.1758 6.8L32.6758 5H30.4258L29.5258 6.8L25.4758 25.7L2.07578 65.75L1.17578 70.7L2.07578 71.6L58.7758 77.45L86.2258 31.55L90.2758 13.1L89.3758 9.95L87.1258 8.15L73.1758 6.8Z" fill="white"/>
<path d="M30.2754 28L25.2754 35.5L34.7754 36.5L39.2754 29L33.7754 28H30.2754Z" fill="#D2FB95"/>
<path d="M42.2754 29L37.2754 36.5L46.7754 37.5L51.2754 30L45.7754 29H42.2754Z" fill="#D2FB95"/>
<path d="M54.2754 30L49.2754 37.5L58.7754 38.5L63.2754 31L57.7754 30H54.2754Z" fill="#D2FB95"/>
<path d="M67.2754 31L62.2754 38.5L71.7754 39.5L76.2754 32L70.7754 31H67.2754Z" fill="#D2FB95"/>
<path d="M33.5746 9.04844L34.9246 8.14844L80.3746 10.8484L82.1746 11.2984V12.6484L79.4746 25.2484L77.6746 25.6984L30.8746 22.9984L29.9746 21.6484L30.8746 19.3984L33.5746 9.04844Z" fill="#D2FB95"/>
<path d="M24.2754 38L19.2754 45.5L28.7754 46.5L33.2754 39L27.7754 38H24.2754Z" fill="#D2FB95"/>
<path d="M36.2754 39L31.2754 46.5L40.7754 47.5L45.2754 40L39.7754 39H36.2754Z" fill="#D2FB95"/>
<path d="M48.2754 40L43.2754 47.5L52.7754 48.5L57.2754 41L51.7754 40H48.2754Z" fill="#D2FB95"/>
<path d="M61.2754 41L56.2754 48.5L65.7754 49.5L70.2754 42L64.7754 41H61.2754Z" fill="#D2FB95"/>
<path d="M17.2754 47L12.2754 54.5L21.7754 55.5L26.2754 48L20.7754 47H17.2754Z" fill="#D2FB95"/>
<path d="M30.2754 49L25.2754 56.5L34.7754 57.5L39.2754 50L33.7754 49H30.2754Z" fill="#D2FB95"/>
<path d="M42.2754 49L37.2754 56.5L46.7754 57.5L51.2754 50L45.7754 49H42.2754Z" fill="#D2FB95"/>
<path d="M55.2754 50L43.2754 67.5L52.7754 68.5L64.2754 51L58.7754 50H55.2754Z" fill="#D2FB95"/>
<path d="M36.2754 59L31.2754 66.5L40.7754 67.5L45.2754 60L39.7754 59H36.2754Z" fill="#D2FB95"/>
<path d="M24.2754 58L19.2754 65.5L28.7754 66.5L33.2754 59L27.7754 58H24.2754Z" fill="#D2FB95"/>
<path d="M11.2754 57L6.27539 64.5L15.7754 65.5L20.2754 58L14.7754 57H11.2754Z" fill="#D2FB95"/>
<path d="M32.1029 3.82943L32.1038 3.82855L86.5248 7.0181H86.5239C86.9555 7.04243 87.3179 7.2745 87.5347 7.60433L89.7038 9.56166L89.7337 9.58802L89.7601 9.61878C90.4514 10.4094 90.706 11.4754 90.4658 12.4884L90.4667 12.4893L86.7709 31.4157L86.7674 31.4297L86.7647 31.4438C86.7185 31.6364 86.6465 31.8228 86.5406 32.0019L86.5371 32.0072L58.8059 77.8237L58.5835 78.1919L58.1563 78.1454L1.85625 72.0704L1.84482 72.0695L1.83428 72.0677C0.785757 71.9202 0 71.0206 0 69.961V69.9434L0.0984375 66.2019C0.0881678 66.0465 0.121919 65.885 0.210059 65.7352L0.213574 65.7299L24.2684 25.7502L28.3667 6.42132L28.3737 6.3888L28.3834 6.35716C28.8906 4.75906 30.4239 3.71088 32.1029 3.82943ZM53.6291 76.297L57.1447 76.6776L55.5047 72.9194L51.5619 72.4896L53.6291 76.297ZM47.6868 75.6554L52.5419 76.1801L50.4729 72.3709L45.6135 71.8418L47.6868 75.6554ZM56.7281 72.3481L58.326 76.0087L60.7166 72.0563L57.6562 70.8381L56.7281 72.3481ZM41.7437 75.0138L46.5979 75.5376L44.5236 71.7232L39.6659 71.1941L41.7437 75.0138ZM35.8031 74.3731L40.6556 74.8969L38.5761 71.0746L33.7201 70.5463L35.8031 74.3731ZM29.8626 73.7324L34.7142 74.2553L32.6303 70.4277L27.7734 69.8986L29.8626 73.7324ZM23.9203 73.0916L28.7728 73.6146L26.6836 69.779L21.8276 69.2508L23.9203 73.0916ZM17.9719 72.45L22.8305 72.9739L20.7378 69.1322L15.8783 68.6031L17.9719 72.45ZM12.0322 71.8093L16.8838 72.3323L14.7885 68.4844L9.93779 67.9562L12.0322 71.8093ZM6.08994 71.1686L10.9433 71.6915L8.84795 67.8375L3.99199 67.3093L6.08994 71.1686ZM1.79824 65.7132L55.6198 71.5738L80.753 30.7389L25.2703 26.7056L1.79824 65.7132ZM58.1353 70.0594L61.1895 71.2749L63.1477 68.0397L60.1181 66.8365L58.1353 70.0594ZM1.35 69.9645C1.35157 70.3458 1.63684 70.6749 2.01973 70.73L5.00186 71.0517L2.90215 67.1907L1.42734 67.0307L1.35 69.9645ZM55.4089 49.5405L63.5344 50.1285L63.5335 50.1293C63.9524 50.1583 64.3908 50.3723 64.5688 50.8448C64.732 51.2782 64.5927 51.7185 64.3816 52.0445L54.0158 68.0625L54.0141 68.0661C53.797 68.3973 53.479 68.6642 53.1492 68.8439C52.8246 69.0207 52.4209 69.1491 52.0154 69.1172V69.1163L43.8943 68.5284V68.5275C43.4759 68.4982 43.0387 68.2847 42.8607 67.8129C42.6973 67.3794 42.8368 66.9384 43.0479 66.6123H43.0488L53.4138 50.5943L53.4155 50.5908C53.6326 50.2597 53.9499 49.9925 54.2795 49.8129C54.6029 49.6368 55.005 49.51 55.4089 49.5405ZM36.4509 58.3849L36.4518 58.384L45.145 59.016L45.1441 59.0168C45.4884 59.041 45.8718 59.2234 46.0283 59.64C46.17 60.0175 46.0452 60.3852 45.8798 60.6384L45.8807 60.6393L41.4835 67.4341L41.4844 67.435C41.3168 67.6953 41.0728 67.8989 40.8252 68.0335C40.5837 68.1647 40.2702 68.2663 39.9437 68.241L31.2539 67.6099C30.909 67.5864 30.5248 67.4035 30.368 66.9859C30.2252 66.6054 30.3517 66.2346 30.5191 65.9813L34.9119 59.19C35.0796 58.93 35.3236 58.7267 35.5711 58.5923C35.8123 58.4614 36.1249 58.3599 36.4509 58.3849ZM55.3078 50.8861C55.2407 50.8808 55.0999 50.9036 54.9255 50.9986C54.7563 51.0907 54.62 51.2164 54.5449 51.3308L44.2731 67.2021L52.1174 67.7707H52.1209C52.188 67.776 52.3289 67.7532 52.5032 67.6582C52.6726 67.566 52.8097 67.4405 52.8847 67.326L63.1547 51.4538L55.3122 50.8861H55.3078ZM24.0882 57.4884L24.0891 57.4875L32.7823 58.1195L32.7814 58.1203C33.1257 58.1445 33.5091 58.3268 33.6656 58.7435C33.8074 59.1211 33.6826 59.4887 33.5171 59.7419L33.518 59.7428L29.1208 66.5376L29.1217 66.5385C28.9541 66.7989 28.7102 67.0024 28.4625 67.1371C28.221 67.2683 27.9076 67.3699 27.581 67.3445L18.8912 66.7134C18.5463 66.6899 18.1621 66.507 18.0053 66.0894C17.8625 65.7089 17.989 65.3382 18.1564 65.0848L22.5492 58.2935C22.7169 58.0334 22.9609 57.8303 23.2084 57.6958C23.4496 57.5649 23.7621 57.4634 24.0882 57.4884ZM60.5971 66.0578L63.6196 67.2583L65.9663 63.3815L62.9754 62.1941L60.5971 66.0578ZM36.319 59.7367C36.2914 59.7438 36.2549 59.7574 36.2153 59.7788C36.1293 59.8256 36.0703 59.8847 36.0466 59.9212L36.0457 59.923L31.9166 66.3038L40.0421 66.8954H40.0491C40.054 66.8948 40.0634 66.8934 40.0764 66.8901C40.104 66.8829 40.1404 66.8685 40.1801 66.847C40.2661 66.8002 40.3252 66.7411 40.3488 66.7046L40.3506 66.7029L44.4779 60.3203L36.3542 59.7305H36.3472C36.3564 59.7312 36.3471 59.7295 36.319 59.7367ZM11.7308 56.5919L11.7316 56.591L20.4249 57.223L20.424 57.2239C20.7684 57.2479 21.1517 57.4302 21.3082 57.847C21.4499 58.2247 21.3253 58.5923 21.1597 58.8454L21.1605 58.8463L16.7634 65.6412L16.7643 65.642C16.5966 65.9025 16.3528 66.1059 16.1051 66.2406C15.8635 66.3718 15.5502 66.4734 15.2235 66.448L6.53379 65.8169C6.18891 65.7935 5.8047 65.6105 5.64785 65.1929C5.50504 64.8124 5.63158 64.4417 5.79902 64.1883L10.1918 57.397C10.3595 57.1369 10.6034 56.9338 10.851 56.7994C11.0922 56.6683 11.4046 56.5669 11.7308 56.5919ZM23.9563 58.8402C23.9287 58.8473 23.8923 58.8608 23.8526 58.8824C23.7664 58.9292 23.7075 58.9882 23.6839 59.0247L23.683 59.0265L19.5539 65.4074L27.6794 65.9989H27.6864C27.6913 65.9983 27.7005 65.997 27.7137 65.9936C27.7414 65.9864 27.7776 65.9721 27.8174 65.9505C27.9036 65.9037 27.9625 65.8446 27.9861 65.8081L27.9879 65.8064L32.1152 59.4238L23.9915 58.834H23.9845C23.994 58.8348 23.9848 58.8329 23.9563 58.8402ZM11.5989 57.9437C11.5712 57.9509 11.535 57.9643 11.4952 57.9859C11.4088 58.0328 11.35 58.0918 11.3265 58.1283L11.3256 58.13L7.19648 64.5109L15.322 65.1024H15.329C15.3338 65.1018 15.3429 65.1005 15.3562 65.0971C15.384 65.09 15.4201 65.0757 15.46 65.054C15.5462 65.0072 15.605 64.9482 15.6287 64.9117L15.6305 64.9099L19.7578 58.5273L11.6341 57.9375H11.6271C11.6369 57.9383 11.6277 57.9363 11.5989 57.9437ZM63.4544 61.4154L66.4392 62.6001L68.7929 58.7119L65.8397 57.5403L63.4544 61.4154ZM42.7649 48.622L42.7658 48.6211L51.4591 49.2531L51.4582 49.2539C51.8024 49.2781 52.1859 49.4605 52.3424 49.8771C52.4841 50.2546 52.3593 50.6223 52.1938 50.8755L52.1947 50.8764L47.7976 57.6712L47.7984 57.6721C47.6309 57.9324 47.3869 58.136 47.1393 58.2706C46.8978 58.4018 46.5843 58.5034 46.2577 58.4781L37.568 57.847C37.2231 57.8235 36.8389 57.6406 36.682 57.223C36.5393 56.8425 36.6658 56.4717 36.8332 56.2184L41.226 49.4271C41.3936 49.1672 41.6377 48.9638 41.8852 48.8294C42.1263 48.6985 42.439 48.597 42.7649 48.622ZM66.3187 56.7616L69.2657 57.9314L71.6142 54.0519L68.7709 52.7775L66.3187 56.7616ZM30.4075 47.7308L30.4084 47.7299L39.1017 48.3619L39.1008 48.3627C39.4451 48.3869 39.8285 48.5692 39.985 48.9859C40.1267 49.3635 40.002 49.7311 39.8364 49.9843L39.8373 49.9852L35.4401 56.78L35.441 56.7809C35.2734 57.0413 35.0295 57.2448 34.7818 57.3794C34.5403 57.5106 34.2269 57.6123 33.9003 57.5869L25.2105 56.9558C24.8657 56.9323 24.4814 56.7494 24.3246 56.3318C24.1818 55.9512 24.3083 55.5805 24.4758 55.3272L28.8686 48.5359C29.0362 48.2758 29.2802 48.0727 29.5277 47.9382C29.7689 47.8073 30.0815 47.7058 30.4075 47.7308ZM42.6331 49.9738C42.6055 49.9809 42.569 49.9945 42.5294 50.016C42.4433 50.0627 42.3844 50.1218 42.3606 50.1583L42.3598 50.1601L38.2307 56.541L46.3562 57.1325H46.3632C46.3681 57.1319 46.3775 57.1305 46.3904 57.1272C46.4181 57.12 46.4545 57.1056 46.4941 57.0841C46.5802 57.0373 46.6393 56.9782 46.6629 56.9417L46.6646 56.94L50.792 50.5574L42.6683 49.9676H42.6612C42.6704 49.9683 42.6611 49.9666 42.6331 49.9738ZM18.0448 46.8343L18.0457 46.8334L26.739 47.4654L26.7381 47.4662C27.0824 47.4903 27.4658 47.6726 27.6223 48.0894C27.764 48.4671 27.6393 48.8346 27.4737 49.0878L27.4746 49.0887L23.0774 55.8835L23.0783 55.8844C22.9107 56.1449 22.6669 56.3483 22.4191 56.4829C22.1776 56.6142 21.8643 56.7158 21.5376 56.6904L12.8479 56.0593C12.503 56.0358 12.1188 55.8529 11.9619 55.4353C11.8191 55.0547 11.9456 54.6841 12.1131 54.4307L16.5059 47.6394C16.6735 47.3792 16.9174 47.1762 17.165 47.0417C17.4063 46.9107 17.7187 46.8093 18.0448 46.8343ZM30.2757 49.0826C30.248 49.0897 30.2117 49.1032 30.172 49.1247C30.0857 49.1716 30.0269 49.2306 30.0032 49.2671L30.0023 49.2689L25.8732 55.6497L33.9987 56.2412H34.0058C34.0106 56.2407 34.0199 56.2393 34.033 56.236C34.0607 56.2288 34.0969 56.2145 34.1367 56.1929C34.2229 56.146 34.2818 56.087 34.3055 56.0505L34.3072 56.0488L38.4346 49.6661L30.3108 49.0764H30.3038C30.3133 49.0772 30.3041 49.0753 30.2757 49.0826ZM17.913 48.1861C17.8853 48.1933 17.8491 48.2067 17.8093 48.2283C17.7229 48.2752 17.6641 48.3342 17.6405 48.3706L17.6396 48.3724L13.5105 54.7533L21.636 55.3448H21.6431C21.6479 55.3442 21.657 55.3429 21.6703 55.3395C21.698 55.3323 21.7341 55.3181 21.774 55.2964C21.8603 55.2495 21.9191 55.1906 21.9428 55.154L21.9445 55.1523L26.0719 48.7697L17.9481 48.1799H17.9411C17.9509 48.1807 17.9417 48.1787 17.913 48.1861ZM69.2464 52.0049L72.0826 53.2767L74.0988 49.9465L71.2187 48.8013L69.2464 52.0049ZM61.4408 39.7618L61.4417 39.7609L70.135 40.3928L70.1341 40.3937C70.4784 40.4178 70.8618 40.6 71.0183 41.0168C71.1599 41.3945 71.0353 41.7621 70.8697 42.0153L66.4734 48.811L66.4743 48.8119C66.3067 49.0722 66.0628 49.2758 65.8151 49.4104C65.5736 49.5415 65.2602 49.6433 64.9336 49.6178L56.2438 48.9868C55.8991 48.9632 55.5148 48.7801 55.3579 48.3627C55.2151 47.9823 55.3417 47.6115 55.5091 47.3581L59.9019 40.5668C60.0695 40.3068 60.3135 40.1037 60.561 39.9692C60.8022 39.8382 61.1147 39.7368 61.4408 39.7618ZM71.6977 48.0226L74.5708 49.166L76.7522 45.5625L73.9063 44.4349L71.6977 48.0226ZM49.0781 38.8644L49.079 38.8635L57.7723 39.4954L57.7714 39.4963C58.1156 39.5204 58.499 39.703 58.6556 40.1195C58.7973 40.4972 58.6726 40.8647 58.507 41.1179L58.5079 41.1188L54.1107 47.9136L54.1116 47.9145C53.944 48.1749 53.7002 48.3784 53.4524 48.513C53.2109 48.6442 52.8975 48.7459 52.5709 48.7204L43.8811 48.0894C43.5364 48.0658 43.152 47.8828 42.9952 47.4654C42.8527 47.085 42.979 46.714 43.1464 46.4608L47.5392 39.6695C47.7068 39.4094 47.9508 39.2063 48.1983 39.0718C48.4395 38.9408 48.7521 38.8395 49.0781 38.8644ZM61.309 41.1135C61.2813 41.1207 61.2449 41.1342 61.2053 41.1557C61.119 41.2026 61.06 41.2616 61.0365 41.2981L61.0356 41.2998L56.9065 47.6807L65.032 48.2722H65.0391C65.0438 48.2717 65.0531 48.2703 65.0663 48.2669C65.094 48.2598 65.1302 48.2454 65.17 48.2239C65.2561 48.1771 65.315 48.118 65.3388 48.0815L65.3405 48.0797L69.4679 41.6971L61.3441 41.1074H61.3371C61.347 41.1082 61.3378 41.1061 61.309 41.1135ZM36.7216 37.9679L36.7225 37.967L45.4157 38.599L45.4148 38.5998C45.7591 38.624 46.1425 38.8063 46.299 39.223C46.4407 39.6006 46.316 39.9682 46.1505 40.2214L46.1514 40.2223L41.7542 47.0171L41.7551 47.018C41.5875 47.2784 41.3436 47.4819 41.0959 47.6165C40.8544 47.7477 40.541 47.8494 40.2144 47.824L31.5246 47.1929C31.1797 47.1694 30.7955 46.9865 30.6387 46.5689C30.4959 46.1884 30.6224 45.8176 30.7898 45.5643L35.1826 38.773C35.3503 38.513 35.5943 38.3098 35.8418 38.1753C36.083 38.0444 36.3955 37.9429 36.7216 37.9679ZM48.9463 40.2161C48.9186 40.2234 48.8822 40.2368 48.8426 40.2583C48.7563 40.3053 48.6974 40.3643 48.6738 40.4007L48.6729 40.4025L44.5438 46.7833L52.6693 47.3748H52.6764C52.6811 47.3743 52.6904 47.3729 52.7036 47.3696C52.7313 47.3624 52.7675 47.3481 52.8073 47.3265C52.8936 47.2796 52.9524 47.2206 52.9761 47.1841L52.9778 47.1824L57.1052 40.7997L48.9814 40.21H48.9744C48.9843 40.2108 48.9751 40.2087 48.9463 40.2161ZM24.3642 37.0714L24.365 37.0705L33.0583 37.7025L33.0574 37.7034C33.4018 37.7274 33.7851 37.9097 33.9416 38.3265C34.0833 38.7042 33.9587 39.0718 33.7931 39.3249L29.3968 46.1206L29.3977 46.1215C29.23 46.382 28.9862 46.5854 28.7385 46.7201C28.4969 46.8513 28.1836 46.9529 27.8569 46.9275L19.1672 46.2964C18.8223 46.273 18.4381 46.09 18.2812 45.6724C18.1384 45.2919 18.265 44.9212 18.4324 44.6678L22.8252 37.8765C22.9929 37.6164 23.2368 37.4133 23.4844 37.2788C23.7256 37.1478 24.038 37.0464 24.3642 37.0714ZM36.5897 39.3197C36.5621 39.3268 36.5257 39.3403 36.486 39.3619C36.3998 39.4087 36.3409 39.4677 36.3173 39.5042L36.3164 39.506L32.1873 45.8869L40.3128 46.4784H40.3198C40.3247 46.4778 40.334 46.4764 40.3471 46.4731C40.3748 46.4659 40.411 46.4516 40.4508 46.43C40.5369 46.3832 40.5959 46.3241 40.6195 46.2876L40.6213 46.2859L44.7486 39.9033L36.6249 39.3135H36.6179C36.6273 39.3143 36.6181 39.3124 36.5897 39.3197ZM24.2323 38.4232C24.2046 38.4304 24.1684 38.4438 24.1286 38.4654C24.0422 38.5123 23.9834 38.5713 23.9599 38.6077L23.959 38.6095L19.8299 44.9904L27.9554 45.5819H27.9624C27.9672 45.5813 27.9763 45.58 27.9896 45.5766C28.0174 45.5695 28.0535 45.5552 28.0934 45.5335C28.1796 45.4867 28.2385 45.4277 28.2621 45.3911L28.2639 45.3894L32.3912 39.0068L24.2675 38.417H24.2604C24.2702 38.4178 24.261 38.4158 24.2323 38.4232ZM74.3854 43.6562L77.2242 44.7812L79.048 41.7701L76.2355 40.6521L74.3854 43.6562ZM76.7153 39.8734L79.5199 40.9887L81.3463 37.9732L78.5654 36.8684L76.7153 39.8734ZM67.7549 29.9989L67.7558 29.998L76.449 30.6299L76.4481 30.6308C76.7925 30.6549 77.1758 30.8371 77.3323 31.2539C77.474 31.6316 77.3494 31.9992 77.1838 32.2524L72.7875 39.0481L72.7884 39.049C72.6207 39.3093 72.3769 39.5129 72.1292 39.6475C71.8876 39.7787 71.5743 39.8804 71.2477 39.8549L62.5579 39.2239C62.2131 39.2003 61.8288 39.0173 61.672 38.5998C61.5292 38.2194 61.6558 37.8486 61.8231 37.5952L66.2159 30.8039C66.3835 30.5439 66.6276 30.3408 66.8751 30.2063C67.1163 30.0753 67.4288 29.9739 67.7549 29.9989ZM55.3922 29.1015L55.3931 29.1006L64.0863 29.7326L64.0854 29.7334C64.4297 29.7575 64.813 29.9401 64.9696 30.3566C65.1114 30.7342 64.9867 31.1018 64.8211 31.355L64.822 31.3559L60.4248 38.1507L60.4257 38.1516C60.258 38.412 60.0143 38.6155 59.7665 38.7501C59.5249 38.8813 59.2116 38.983 58.885 38.9576L50.1952 38.3265C49.8504 38.3029 49.466 38.1199 49.3093 37.7025C49.1667 37.3221 49.293 36.9511 49.4604 36.6979L53.8532 29.9066C54.0209 29.6465 54.2649 29.4434 54.5124 29.3089C54.7535 29.178 55.0662 29.0766 55.3922 29.1015ZM67.623 31.3506C67.5954 31.3578 67.559 31.3713 67.5193 31.3928C67.4331 31.4398 67.3741 31.4987 67.3506 31.5352L67.3497 31.5369L63.2206 37.9178L71.3461 38.5093H71.3531C71.3579 38.5088 71.3671 38.5074 71.3804 38.504C71.408 38.4969 71.4443 38.4825 71.4841 38.461C71.5702 38.4142 71.6291 38.3551 71.6528 38.3186L71.6546 38.3168L75.7819 31.9342L67.6582 31.3445H67.6512C67.661 31.3453 67.6518 31.3432 67.623 31.3506ZM43.0356 28.2103L43.0365 28.2094L51.7298 28.8413L51.7289 28.8422C52.0732 28.8664 52.4566 29.0487 52.6131 29.4654C52.7548 29.8429 52.6301 30.2106 52.4646 30.4638L52.4654 30.4647L48.0683 37.2595L48.0691 37.2604C47.9016 37.5207 47.6576 37.7243 47.41 37.8589C47.1684 37.9901 46.855 38.0917 46.5284 38.0663L37.8387 37.4353C37.4938 37.4118 37.1096 37.2289 36.9527 36.8113C36.81 36.4307 36.9365 36.06 37.1039 35.8067L41.4967 29.0154C41.6643 28.7554 41.9084 28.5522 42.1559 28.4177C42.397 28.2868 42.7096 28.1853 43.0356 28.2103ZM55.2603 30.4533C55.2327 30.4605 55.1963 30.4739 55.1566 30.4954C55.0704 30.5424 55.0115 30.6014 54.9879 30.6378L54.987 30.6396L50.8579 37.0204L58.9834 37.6119H58.9904C58.9952 37.6114 59.0045 37.6101 59.0177 37.6067C59.0454 37.5995 59.0815 37.5852 59.1214 37.5636C59.2077 37.5167 59.2665 37.4577 59.2901 37.4212L59.2919 37.4195L63.4192 31.0368L55.2955 30.4471H55.2885C55.2984 30.4479 55.2891 30.4458 55.2603 30.4533ZM79.0444 36.0906L81.8183 37.1936L83.6446 34.1772L80.8945 33.0856L79.0444 36.0906ZM30.6782 27.3138L30.6791 27.3129L39.3724 27.9449L39.3715 27.9457C39.7158 27.9698 40.0992 28.1521 40.2557 28.5689C40.3974 28.9466 40.2727 29.3141 40.1071 29.5673L40.108 29.5682L35.7108 36.363L35.7117 36.3639C35.5441 36.6243 35.3003 36.8278 35.0525 36.9624C34.811 37.0937 34.4977 37.1953 34.171 37.1699L25.4812 36.5388C25.1364 36.5153 24.7522 36.3324 24.5953 35.9148C24.4525 35.5342 24.579 35.1635 24.7465 34.9102L29.1393 28.1189C29.3069 27.8588 29.5509 27.6557 29.7984 27.5212C30.0397 27.3902 30.3521 27.2888 30.6782 27.3138ZM42.9038 29.562C42.8762 29.5692 42.8398 29.5827 42.8001 29.6042C42.7139 29.6511 42.655 29.7101 42.6313 29.7466L42.6305 29.7484L38.5014 36.1292L46.6269 36.7207H46.6339C46.6388 36.7202 46.6481 36.7188 46.6611 36.7155C46.6888 36.7083 46.7251 36.694 46.7648 36.6724C46.851 36.6255 46.91 36.5665 46.9336 36.53L46.9353 36.5283L51.0627 30.1456L42.939 29.5559H42.9319C42.9413 29.5566 42.9321 29.5548 42.9038 29.562ZM30.5464 28.6656C30.5187 28.6727 30.4824 28.6862 30.4427 28.7077C30.3563 28.7547 30.2975 28.8136 30.2739 28.8501L30.273 28.8519L26.1439 35.2327L34.2694 35.8243H34.2765C34.2813 35.8237 34.2904 35.8224 34.3037 35.819C34.3314 35.8118 34.3675 35.7975 34.4074 35.7759C34.4937 35.729 34.5525 35.67 34.5762 35.6335L34.5779 35.6318L38.7053 29.2492L30.5815 28.6594H30.5745C30.5842 28.6602 30.575 28.6582 30.5464 28.6656ZM82.5697 30.3021L82.5442 30.4076L82.4871 30.4998L81.3735 32.3077L84.1175 33.3958L85.3796 31.3119C85.4101 31.2599 85.432 31.2033 85.449 31.1344L85.6248 30.2318L82.8765 29.0048L82.5697 30.3021ZM32.015 5.17591C30.9656 5.09869 30.004 5.74776 29.6771 6.74476L25.7265 25.3846L81.3867 29.4311L86.3824 8.38216L86.3578 8.36019L32.0247 5.17679L32.015 5.17591ZM83.0883 28.1127L85.8015 29.3247L86.4729 25.8865L83.8626 24.8467L83.0883 28.1127ZM34.9479 7.53226H34.9488L81.2127 10.111L81.4553 10.1365C82.0106 10.2252 82.4899 10.5081 82.8097 10.9363C83.1753 11.4261 83.299 12.0617 83.1428 12.7011L83.1401 12.7108L80.0253 24.6947C79.7883 25.6814 78.8761 26.3433 77.8728 26.289L77.872 26.2881L31.6028 23.7103L30.9647 23.6743V23.5661C30.0148 23.2013 29.4171 22.1747 29.6789 21.1219L29.6807 21.1149L32.7973 9.11341C33.0388 8.13325 33.9487 7.47809 34.9479 7.53226ZM84.0727 23.9617L86.6479 24.9873L87.3308 21.4919L84.919 20.3933L84.0727 23.9617ZM78.7491 11.3239C78.7979 11.3463 78.8483 11.3765 78.8941 11.4223C79.0497 11.5778 79.0549 11.7737 79.0277 11.896V11.8969L78.8643 12.6246C79.3962 12.8942 79.8191 13.2919 80.1202 13.812C80.4948 14.4593 80.5899 15.181 80.419 15.9495V15.9504L80.1431 17.187L80.1404 17.1994L80.1369 17.2125C80.1148 17.2894 80.063 17.4063 79.9418 17.4938C79.8244 17.5783 79.702 17.5913 79.6298 17.5913H79.6166L79.6025 17.5905L77.7287 17.4797V17.4771C77.7208 17.4767 77.7122 17.4762 77.7032 17.4753L77.9502 17.6318C78.5049 17.9679 78.9288 18.3895 79.2018 18.9018H79.2026C79.4958 19.4468 79.538 20.0844 79.3837 20.7783C79.2093 21.57 78.8161 22.2465 78.2121 22.7962C77.6891 23.2721 77.0909 23.6029 76.4244 23.7955L76.246 24.6129L76.2451 24.6147C76.2281 24.6907 76.191 24.7686 76.1335 24.8388L77.9458 24.9399C78.3125 24.9598 78.6314 24.7196 78.7131 24.38L78.7166 24.3677L81.8332 12.3706C81.8961 12.1022 81.836 11.889 81.7277 11.744C81.6178 11.597 81.4243 11.4745 81.1371 11.4583V11.4575L78.7491 11.3239ZM70.2756 10.8519C70.2954 10.8664 70.3147 10.8831 70.3336 10.902C70.4886 11.0568 70.4939 11.2515 70.4672 11.374L70.3072 12.1035C70.84 12.373 71.2635 12.7711 71.5649 13.2917C71.9397 13.939 72.0346 14.6606 71.8638 15.4292V15.4301L71.5878 16.6667L71.5852 16.679L71.5816 16.6922C71.5596 16.7691 71.5079 16.8859 71.3865 16.9735C71.2691 17.058 71.1467 17.071 71.0745 17.071H71.0613L71.0473 17.0702L69.1734 16.9594V16.9568C69.1656 16.9564 69.1569 16.9559 69.1479 16.955L69.3949 17.1115C69.9496 17.4475 70.3735 17.8692 70.6465 18.3815H70.6474C70.9406 18.9266 70.9828 19.564 70.8284 20.2579C70.6541 21.0498 70.2609 21.7261 69.6568 22.2759C69.1341 22.7516 68.5361 23.0817 67.87 23.2744L67.6907 24.0926L67.6898 24.0944C67.6696 24.1851 67.6241 24.2811 67.5448 24.3598L73.481 24.6903C73.3896 24.5438 73.3979 24.3909 73.4177 24.3018L73.575 23.5925C73.0207 23.3197 72.5777 22.9142 72.2681 22.3691L72.2672 22.37C71.8827 21.7023 71.7867 20.9652 71.9569 20.1868V20.1859L72.1116 19.4854V19.4845C72.1335 19.3864 72.1892 19.261 72.3129 19.1681C72.4391 19.0735 72.5804 19.0543 72.6908 19.0653H72.6899L74.5269 19.1751L74.526 19.1769C74.6387 19.1831 74.8283 19.2295 74.9373 19.4274C75.0196 19.577 74.9999 19.7225 74.9812 19.8L74.9821 19.8009L74.8274 20.4988L74.8283 20.4996C74.7869 20.6912 74.8223 20.8476 74.9355 20.9945C75.0469 21.1387 75.1943 21.2206 75.4146 21.2344H75.4137C75.6511 21.2488 75.8682 21.1834 76.0764 21.0208C76.3014 20.845 76.4079 20.669 76.4499 20.4961C76.4678 20.4143 76.458 20.3476 76.4165 20.2738C76.368 20.1877 76.2654 20.0738 76.0649 19.9433L76.0562 19.9371L76.0465 19.931C75.9086 19.8312 75.6776 19.6885 75.3284 19.4704V19.4696C74.989 19.2629 74.6726 19.0652 74.3854 18.8877L74.381 18.8851C73.7459 18.4818 73.2972 17.9666 73.0767 17.3321C72.8645 16.7211 72.8453 16.0546 73.0046 15.3589C73.1803 14.5746 73.5821 13.9018 74.2104 13.3577C74.7431 12.8924 75.3476 12.5621 76.0166 12.3803L76.195 11.584L76.2188 11.5058C76.2493 11.4249 76.3038 11.3371 76.3963 11.2676C76.4366 11.2374 76.4792 11.216 76.5211 11.1999L70.2756 10.8519ZM73.9213 24.3879L73.9415 24.0311C73.934 24.0306 73.9272 24.0293 73.9213 24.0293V24.3879ZM61.7687 10.3869C61.9235 10.5416 61.9289 10.7365 61.9022 10.8589L61.7423 11.5884C62.275 11.858 62.6986 12.2561 63 12.7767C63.3746 13.4239 63.4696 14.1457 63.2988 14.9142V14.9151L63.0229 16.1517L63.0202 16.164L63.0167 16.1772C62.9947 16.254 62.9428 16.3708 62.8216 16.4584C62.7042 16.5431 62.5818 16.5559 62.5096 16.556H62.4964L62.4823 16.5551L60.6085 16.4444V16.4417C60.6006 16.4413 60.592 16.4408 60.583 16.44L60.83 16.5964C61.3846 16.9325 61.8086 17.3542 62.0815 17.8664H62.0824C62.3756 18.4115 62.4177 19.0491 62.2635 19.7429C62.0892 20.5347 61.6958 21.2111 61.0919 21.7609C60.5692 22.2366 59.9712 22.5666 59.3051 22.7593L59.1258 23.5776L59.1249 23.5793C59.1013 23.6853 59.0403 23.7956 58.9342 23.8799L64.9512 24.2157C64.9498 24.2139 64.9481 24.2122 64.9468 24.2104C64.8265 24.0525 64.8356 23.8785 64.8571 23.7815L65.0145 23.0722C64.4602 22.7994 64.0171 22.3939 63.7075 21.8488L63.7066 21.8496C63.3221 21.1819 63.2261 20.4449 63.3964 19.6664V19.6656L63.5511 18.9651V18.9642C63.5729 18.866 63.6287 18.7406 63.7523 18.6478C63.8785 18.5533 64.0199 18.5341 64.1303 18.545H64.1294L65.9663 18.6548L65.9654 18.6566C66.0782 18.6627 66.2677 18.7093 66.3768 18.9071C66.4592 19.0567 66.4394 19.2021 66.4207 19.2797L66.4216 19.2806L66.2669 19.9785L66.2678 19.9793C66.2262 20.1709 66.2618 20.3272 66.375 20.4742C66.4863 20.6184 66.6339 20.7002 66.854 20.7141H66.8531C67.0906 20.7285 67.3076 20.6631 67.5158 20.5005C67.741 20.3246 67.8474 20.1488 67.8894 19.9758C67.9072 19.8939 67.8975 19.8274 67.856 19.7535C67.8074 19.6674 67.7047 19.5534 67.5044 19.423L67.4956 19.4168L67.4859 19.4107C67.348 19.3109 67.1169 19.1681 66.7679 18.9501V18.9493C66.4286 18.7426 66.112 18.5448 65.8248 18.3674L65.8204 18.3648C65.1854 17.9615 64.7366 17.4463 64.5161 16.8118C64.304 16.2007 64.2847 15.5344 64.444 14.8386C64.6197 14.0543 65.0216 13.3815 65.6499 12.8373C66.1825 12.3721 66.7871 12.0418 67.4561 11.86L67.6345 11.0637L67.6582 10.9855C67.6888 10.9046 67.7433 10.8168 67.8357 10.7473C67.8509 10.736 67.8677 10.7275 67.8832 10.7183L61.7572 10.3773C61.7608 10.3807 61.7651 10.3834 61.7687 10.3869ZM76.8349 12.8514L76.7716 13.1362L76.4851 13.1942C75.8584 13.3213 75.2967 13.6037 74.8011 14.037L74.7993 14.0379C74.3136 14.4587 74.0152 14.9638 73.8826 15.5576L73.8817 15.5602C73.7545 16.1163 73.7777 16.608 73.9266 17.0368C74.0668 17.4402 74.3603 17.8049 74.8582 18.1222L75.8013 18.7049L75.8057 18.7076C76.1358 18.9137 76.4047 19.0785 76.5747 19.2015H76.5738C76.8379 19.3761 77.0605 19.5821 77.2014 19.8326C77.3518 20.1002 77.3952 20.3939 77.3288 20.693L77.327 20.6992C77.2302 21.1081 76.9868 21.4514 76.6301 21.7301C76.2543 22.0236 75.8224 22.1607 75.3592 22.1327H75.3583C74.8992 22.1039 74.5043 21.9095 74.2228 21.5447C73.9434 21.1825 73.8522 20.7536 73.9485 20.3089V20.308L74.0057 20.0461L72.9237 19.9802L72.8367 20.3792C72.7259 20.8861 72.7684 21.3363 72.9571 21.7468L73.0468 21.9208L73.0485 21.9235C73.31 22.3848 73.7048 22.7098 74.2482 22.9043L74.6218 23.0388L74.5356 23.4264L74.3941 24.0566L75.4321 24.119L75.6053 23.3324L75.6668 23.0529L75.9463 22.9905C76.5783 22.848 77.1294 22.5651 77.6065 22.1309C78.0747 21.7048 78.371 21.1921 78.5048 20.584L78.5057 20.5831C78.6274 20.0358 78.5731 19.6327 78.4099 19.3289L78.409 19.3263C78.2252 18.9805 77.9269 18.6698 77.4844 18.4017L77.4773 18.3973L75.9744 17.4481L75.9656 17.4419C75.5877 17.1902 75.2827 16.9039 75.1307 16.5683L75.1289 16.5648C74.9799 16.2279 74.9689 15.8596 75.0533 15.4828L75.0542 15.4811C75.1534 15.0493 75.3913 14.6875 75.7652 14.4088C76.1336 14.1345 76.5511 13.9954 77.008 14.0239H77.0089C77.4485 14.0523 77.8279 14.2282 78.1137 14.5512C78.4274 14.906 78.5036 15.3558 78.402 15.8195L78.4028 15.8203L78.2411 16.6078L79.3354 16.6729L79.541 15.7544L79.5788 15.5452C79.6458 15.0652 79.5609 14.6436 79.3406 14.2629C79.0813 13.8152 78.7038 13.4968 78.1901 13.3093L77.8184 13.1731L77.9054 12.7872L78.0495 12.1421L77.0062 12.0797L76.8349 12.8514ZM53.238 9.90267C53.3622 10.0511 53.3665 10.2259 53.3417 10.3395L53.1817 11.069C53.7145 11.3386 54.138 11.7366 54.4395 12.2573C54.8141 12.9045 54.9091 13.6262 54.7383 14.3948V14.3956L54.4623 15.6323L54.4597 15.6446L54.4562 15.6577C54.4341 15.7346 54.3823 15.8515 54.261 15.939C54.1435 16.0237 54.0212 16.0365 53.949 16.0366H53.9358L53.9218 16.0357L52.0479 15.9249V15.9223C52.04 15.9219 52.0315 15.9214 52.0225 15.9205L52.2694 16.077C52.8241 16.4131 53.2481 16.8347 53.521 17.347H53.5219C53.815 17.8921 53.8573 18.5296 53.7029 19.2235C53.5286 20.0153 53.1354 20.6917 52.5313 21.2414C52.0086 21.7172 51.4107 22.0472 50.7445 22.2399L50.5652 23.0581L50.5644 23.0599C50.5372 23.1815 50.4647 23.3132 50.3262 23.3992C50.3252 23.3998 50.3236 23.3994 50.3227 23.4L56.4205 23.7402C56.4072 23.7264 56.3942 23.7116 56.3818 23.6953C56.2614 23.5374 56.2706 23.3635 56.2922 23.2664L56.4495 22.5572C55.8951 22.2843 55.4522 21.879 55.1426 21.3337L55.1417 21.3346C54.7572 20.6669 54.6611 19.9299 54.8314 19.1514V19.1505L54.9861 18.45V18.4492C55.0081 18.351 55.0637 18.2255 55.1874 18.1327C55.3136 18.0383 55.4549 18.019 55.5653 18.0299H55.5645L57.4014 18.1398L57.4005 18.1415C57.5132 18.1478 57.7029 18.1944 57.8118 18.392C57.8941 18.5415 57.8744 18.687 57.8558 18.7647L57.8566 18.7656L57.702 19.4634L57.7028 19.4643C57.6613 19.656 57.6968 19.8121 57.8101 19.9591C57.9214 20.1035 58.0687 20.1853 58.2891 20.1991H58.2882C58.5257 20.2134 58.7427 20.1481 58.9509 19.9855C59.1759 19.8096 59.2825 19.6337 59.3244 19.4608C59.3422 19.379 59.3325 19.3122 59.291 19.2384C59.2425 19.1523 59.1398 19.0384 58.9395 18.9079L58.9307 18.9018L58.921 18.8956C58.7831 18.7959 58.5522 18.6532 58.2029 18.4351V18.4342C57.8635 18.2275 57.5472 18.0298 57.2599 17.8524L57.2555 17.8497C56.6203 17.4464 56.1717 16.9314 55.9512 16.2967C55.739 15.6856 55.7198 15.0193 55.8791 14.3236C56.0548 13.5393 56.4566 12.8664 57.085 12.3223C57.6176 11.8571 58.2221 11.5267 58.8911 11.345L59.0695 10.5487L59.0933 10.4704C59.1231 10.3919 59.175 10.3069 59.2629 10.2384L53.238 9.90267ZM68.2743 12.3311L68.211 12.6159L67.9245 12.6739C67.298 12.801 66.7361 13.0834 66.2405 13.5167L66.2388 13.5176C65.753 13.9384 65.4547 14.4435 65.3221 15.0372L65.3212 15.0399C65.1939 15.5961 65.2172 16.0877 65.366 16.5164C65.5062 16.92 65.7998 17.2846 66.2977 17.6019L67.2407 18.1846L67.2451 18.1872C67.5751 18.3933 67.8441 18.5582 68.0142 18.6812H68.0133C68.2774 18.8558 68.4999 19.0619 68.6408 19.3122C68.7914 19.5799 68.8347 19.8735 68.7683 20.1727L68.7665 20.1788C68.6697 20.5879 68.4264 20.931 68.0695 21.2098C67.6937 21.5033 67.2619 21.6404 66.7986 21.6123H66.7978C66.3387 21.5835 65.9437 21.3892 65.6622 21.0244C65.3829 20.6621 65.2916 20.2333 65.388 19.7886V19.7877L65.4451 19.5258L64.3632 19.4599L64.2762 19.8589C64.1652 20.3659 64.2079 20.8159 64.3966 21.2265L64.4862 21.4005L64.488 21.4032C64.7494 21.8645 65.1443 22.1894 65.6877 22.384L66.0612 22.5185L65.9751 22.9061L65.8336 23.5363L66.8769 23.5987L67.05 22.812L67.1115 22.5326L67.391 22.4702C68.023 22.3277 68.5741 22.0448 69.0513 21.6106C69.5195 21.1844 69.8157 20.6719 69.9495 20.0637L69.9504 20.0628C70.0722 19.5153 70.018 19.1124 69.8546 18.8086L69.8537 18.806C69.6699 18.4602 69.3716 18.1495 68.9291 17.8814L68.9221 17.877L67.4191 16.9278L67.4103 16.9216C67.0325 16.6699 66.7273 16.3836 66.5754 16.048L66.5736 16.0445C66.4247 15.7075 66.4136 15.3393 66.498 14.9625L66.4989 14.9608C66.5981 14.5289 66.8368 14.1672 67.2108 13.8885C67.579 13.6144 67.9961 13.4751 68.4527 13.5036H68.4536C68.8932 13.5319 69.2727 13.7079 69.5584 14.0309C69.8722 14.3857 69.9483 14.8354 69.8467 15.2992L69.8476 15.3L69.6858 16.0875L70.7801 16.1526L70.9857 15.2341L71.0235 15.0249C71.0906 14.5448 71.0057 14.1233 70.7853 13.7426C70.5261 13.2949 70.1485 12.9764 69.6349 12.789L69.2648 12.6536L69.3501 12.2696L69.4916 11.6227L68.4457 11.5594L68.2743 12.3311ZM34.8741 8.87962C34.5077 8.86004 34.1885 9.10105 34.1068 9.44037L34.1042 9.45267L30.9885 21.448L30.9735 21.5297C30.9219 21.9372 31.2343 22.3329 31.6767 22.3568L32.3147 22.3911V22.3972L47.9109 23.2656C47.8795 23.2412 47.8488 23.212 47.8213 23.1759C47.7009 23.0181 47.7101 22.8441 47.7316 22.747L47.889 22.0377C47.3346 21.7649 46.8916 21.3594 46.582 20.8143L46.5812 20.8152C46.1966 20.1475 46.1006 19.4104 46.2709 18.632V18.6311L46.4256 17.9306V17.9297C46.4474 17.8315 46.5031 17.7062 46.6269 17.6133C46.7532 17.5187 46.8943 17.4995 47.0048 17.5105H47.0039L48.8408 17.6203L48.8399 17.6221C48.9527 17.6283 49.1423 17.6747 49.2513 17.8726C49.3336 18.0222 49.3139 18.1677 49.2952 18.2452L49.2961 18.2461L49.1414 18.944L49.1423 18.9449C49.1008 19.1365 49.1362 19.2927 49.2495 19.4397C49.3609 19.5839 49.5082 19.6658 49.7285 19.6796H49.7276C49.9652 19.694 50.1821 19.6287 50.3903 19.466C50.6154 19.2901 50.7219 19.1143 50.7639 18.9413C50.7817 18.8595 50.772 18.7928 50.7305 18.719C50.682 18.6329 50.5793 18.519 50.3789 18.3885L50.3701 18.3824L50.3604 18.3762C50.2225 18.2764 49.9916 18.1337 49.6424 17.9157V17.9148C49.303 17.7081 48.9866 17.5104 48.6993 17.3329L48.6949 17.3303C48.0598 16.927 47.6112 16.4119 47.3906 15.7773C47.1784 15.1662 47.1593 14.4999 47.3186 13.8041C47.4942 13.0198 47.896 12.3471 48.5244 11.8029C49.0571 11.3376 49.6615 11.0073 50.3306 10.8255L50.509 10.0292L50.5327 9.95101C50.557 9.88694 50.5963 9.81871 50.6575 9.75853L34.8741 8.87962ZM59.7094 11.8161L59.6461 12.1008L59.3596 12.1588C58.733 12.2859 58.1712 12.5684 57.6756 13.0017L57.6738 13.0026C57.188 13.4233 56.8898 13.9285 56.7571 14.5222L56.7562 14.5248C56.6289 15.0811 56.6522 15.5726 56.8011 16.0014C56.9413 16.405 57.2347 16.7695 57.7327 17.0869L58.6758 17.6696L58.6802 17.6722C59.0103 17.8784 59.2792 18.0431 59.4492 18.1661H59.4483C59.7124 18.3407 59.935 18.5468 60.0759 18.7972C60.2264 19.0648 60.2696 19.3586 60.2033 19.6577L60.2016 19.6638C60.1048 20.0728 59.8613 20.416 59.5046 20.6948C59.1288 20.9883 58.697 21.1253 58.2337 21.0973H58.2328C57.7736 21.0686 57.3788 20.8742 57.0973 20.5093C56.8178 20.147 56.7266 19.7184 56.823 19.2736V19.2727L56.8802 19.0108L55.7982 18.9449L55.7112 19.3439C55.6003 19.8509 55.6429 20.3009 55.8316 20.7115L55.9213 20.8855L55.923 20.8881C56.1845 21.3496 56.5792 21.6744 57.1228 21.869L57.4963 22.0035L57.4102 22.3911L57.2687 23.0212L58.3119 23.0836L58.4851 22.297L58.5466 22.0175L58.8261 21.9551C59.4581 21.8126 60.0091 21.5298 60.4863 21.0955C60.9544 20.6694 61.2508 20.1568 61.3846 19.5487L61.3854 19.5478C61.5071 19.0005 61.453 18.5973 61.2896 18.2936L61.2888 18.291C61.105 17.9452 60.8066 17.6344 60.3642 17.3663L60.3571 17.3619L58.8542 16.4127L58.8454 16.4066C58.4674 16.1548 58.1625 15.8687 58.0104 15.5329L58.0087 15.5294C57.8597 15.1924 57.8495 14.8243 57.934 14.4475V14.4457C58.0333 14.0139 58.2718 13.6521 58.6459 13.3735C59.0141 13.0994 59.4311 12.96 59.8878 12.9885H59.8887C60.3282 13.0169 60.7078 13.1929 60.9935 13.5159C61.3072 13.8706 61.3833 14.3205 61.2817 14.7841L61.2826 14.785L61.1209 15.5725L62.2151 15.6375L62.4208 14.7191L62.4586 14.5099C62.5256 14.0299 62.4416 13.6082 62.2213 13.2276C61.962 12.7798 61.5836 12.4614 61.0699 12.274L60.6999 12.1386L60.7852 11.7545L60.9267 11.1077L59.8808 11.0444L59.7094 11.8161ZM51.1488 11.2966L51.0855 11.5814L50.799 11.6394C50.1723 11.7665 49.6107 12.0489 49.115 12.4823L49.1133 12.4831C48.6274 12.9039 48.3292 13.4089 48.1966 14.0028L48.1957 14.0054C48.0684 14.5616 48.0916 15.0532 48.2405 15.482C48.3808 15.8855 48.6743 16.2501 49.1722 16.5674L50.1152 17.1501L50.1196 17.1528C50.4498 17.3589 50.7186 17.5237 50.8887 17.6467H50.8878C51.1519 17.8213 51.3745 18.0274 51.5153 18.2778C51.6658 18.5454 51.7092 18.8391 51.6428 19.1382L51.641 19.1444C51.5442 19.5534 51.3009 19.8966 50.944 20.1753C50.5682 20.4689 50.1365 20.6059 49.6731 20.5779H49.6723C49.2131 20.5491 48.8182 20.3547 48.5367 19.9899C48.2573 19.6277 48.1661 19.1989 48.2625 18.7541V18.7533L48.3196 18.4913L47.2377 18.4254L47.1507 18.8244C47.0398 19.3314 47.0824 19.7814 47.2711 20.192L47.3607 20.366L47.3625 20.3687C47.6239 20.83 48.0187 21.155 48.5622 21.3495L48.9357 21.484L48.8496 21.8716L48.7081 22.5018L49.7514 22.5642L49.9245 21.7776L49.986 21.4981L50.2655 21.4357C50.8976 21.2932 51.4485 21.0104 51.9258 20.5761C52.394 20.15 52.6902 19.6374 52.824 19.0292L52.8249 19.0284C52.9467 18.4809 52.8924 18.078 52.7291 17.7742L52.7282 17.7715C52.5444 17.4257 52.2461 17.115 51.8036 16.8469L51.7966 16.8425L50.2937 15.8933L50.2849 15.8871C49.9069 15.6354 49.6019 15.3492 49.4499 15.0135L49.4481 15.01C49.2992 14.673 49.2881 14.3048 49.3726 13.9281L49.3734 13.9263C49.4727 13.4944 49.7112 13.1328 50.0854 12.854C50.4536 12.5798 50.8704 12.4406 51.3272 12.4691H51.3281C51.7677 12.4975 52.1472 12.6734 52.4329 12.9964C52.7466 13.3512 52.8228 13.801 52.7212 14.2647L52.7221 14.2656L52.5603 15.0531L53.6546 15.1181L53.8603 14.1996L53.898 13.9905C53.9651 13.5104 53.881 13.0888 53.6607 12.7081C53.4015 12.2603 53.0231 11.942 52.5094 11.7545L52.1394 11.6192L52.2246 11.2351L52.3661 10.5882L51.3202 10.5249L51.1488 11.2966ZM85.1309 19.5012L87.5083 20.584L88.1868 17.1123L85.9438 16.0752L85.1309 19.5012ZM76.9509 14.9212C76.7285 14.9076 76.5186 14.97 76.3031 15.1304C76.0945 15.2859 75.9812 15.4651 75.9313 15.6788L75.9322 15.6797C75.8791 15.917 75.8994 16.0801 75.9516 16.1992C76.0022 16.3091 76.1436 16.4787 76.464 16.6922L77.3165 17.231C77.2403 17.097 77.25 16.962 77.2673 16.8812H77.2664L77.5213 15.6393L77.523 15.6314C77.5775 15.388 77.5269 15.2471 77.4396 15.148C77.3218 15.0148 77.1696 14.9362 76.9509 14.9221V14.9212ZM68.3956 14.4009C68.1733 14.3873 67.9632 14.4497 67.7478 14.6101C67.5392 14.7656 67.4259 14.9448 67.3761 15.1585L67.377 15.1594C67.3237 15.3968 67.3441 15.5598 67.3963 15.6788C67.4468 15.7888 67.5883 15.9583 67.9087 16.1719L68.7612 16.7107C68.6851 16.5765 68.6947 16.4416 68.712 16.3609H68.7111L68.966 15.119L68.9678 15.1111L68.9836 15.0249C69.0093 14.8332 68.9609 14.7145 68.8843 14.6277C68.7665 14.4946 68.6142 14.4159 68.3956 14.4018V14.4009ZM86.1565 15.1814L88.3643 16.2036L89.0341 12.7785L86.9256 11.94L86.1565 15.1814ZM59.8307 13.8859C59.6083 13.8722 59.3983 13.9347 59.1829 14.0951C58.9742 14.2505 58.861 14.4298 58.8111 14.6435L58.812 14.6444C58.7588 14.8818 58.7792 15.0447 58.8313 15.1638C58.8819 15.2738 59.0231 15.4432 59.3438 15.6569L60.1963 16.1956C60.1201 16.0614 60.1297 15.9266 60.1471 15.8458H60.1462L60.4011 14.6039L60.4028 14.596L60.4187 14.5099C60.4443 14.3184 60.3959 14.1994 60.3193 14.1126C60.2016 13.9795 60.0492 13.9009 59.8307 13.8868V13.8859ZM51.2701 13.3664C51.0476 13.3527 50.8378 13.4151 50.6224 13.5756C50.4136 13.7311 50.3004 13.9102 50.2506 14.1241L50.2515 14.1249C50.1982 14.3623 50.2186 14.5253 50.2708 14.6444C50.3214 14.7543 50.4628 14.9239 50.7832 15.1374L51.6357 15.6762C51.5595 15.5421 51.5692 15.4072 51.5865 15.3264H51.5856L51.8405 14.0845L51.8423 14.0766L51.8581 13.9905C51.8838 13.7988 51.8353 13.68 51.7588 13.5932C51.641 13.46 51.4888 13.3814 51.2701 13.3673V13.3664ZM87.1356 11.0549L89.1967 11.8741C89.2317 11.3886 89.0824 10.9081 88.7634 10.5311L87.5259 9.414L87.1356 11.0549Z" fill="#222222"/>
</svg>
