<svg width="288" height="202" viewBox="0 0 288 202" fill="none" xmlns="http://www.w3.org/2000/svg">
<rect x="15" y="61.1367" width="259" height="35" fill="url(#paint0_linear_1459_3601)"/>
<rect x="15" y="110.137" width="259" height="34" fill="url(#paint1_linear_1459_3601)"/>
<rect x="15" y="158.137" width="259" height="35" fill="url(#paint2_linear_1459_3601)"/>
<path d="M121.29 26.8337C126.071 25.3625 130.774 25.5639 135.181 28.0849C138.18 29.7995 139.899 32.3491 139.727 35.9217C139.69 36.6861 139.727 37.4524 139.721 38.2187C139.712 39.9734 138.702 40.9809 136.893 40.9886C133.469 41.002 130.046 40.9928 126.622 40.9947L126.624 40.9923C123.33 40.9923 120.036 40.998 116.74 40.9923C114.833 40.9883 113.877 40.069 113.906 38.1706C113.935 36.3029 113.606 34.3951 114.362 32.5925C115.661 29.4968 118.202 27.7839 121.29 26.8337ZM119.168 15.3016C119.399 10.9474 122.787 7.80983 127.046 8.00897C131.612 8.22161 134.508 11.6621 134.27 16.593C134.068 20.7671 130.476 23.9587 126.211 23.7537C122.045 23.5525 118.929 19.8148 119.168 15.3016Z" fill="white"/>
<path d="M98.5928 57.083L98.5928 55.3635L93.0014 55.3574L102.861 45.4977L101.642 44.2782L91.7819 54.1379V48.5404L90.0563 48.5465L90.0563 57.083L98.5928 57.083Z" fill="#8BD07C"/>
<path d="M155.146 57.0791L155.146 55.3596L160.737 55.3535L150.877 45.4938L152.097 44.2743L161.956 54.134V48.5365L163.682 48.5426L163.682 57.0791L155.146 57.0791Z" fill="#8BD07C"/>
<g clip-path="url(#clip0_1459_3601)">
<path d="M60.1016 108.012L60.1016 106.77L56.0649 106.766L63.183 99.6479L62.3026 98.7674L55.1845 105.886L55.1845 101.844L53.9388 101.849L53.9388 108.012L60.1016 108.012Z" fill="#8BD07C"/>
</g>
<g clip-path="url(#clip1_1459_3601)">
<path d="M82.9062 108.012L82.9062 106.77L86.9429 106.766L79.8248 99.6479L80.7052 98.7674L87.8233 105.886L87.8233 101.844L89.069 101.849L89.069 108.012L82.9062 108.012Z" fill="#8BD07C"/>
</g>
<path d="M67.5292 79.6036C71.0789 78.5132 74.5712 78.6625 77.843 80.531C80.0698 81.8018 81.3464 83.6915 81.2183 86.3395C81.1909 86.906 81.2185 87.474 81.2141 88.0419C81.2069 89.3424 80.457 90.0892 79.114 90.0949C76.572 90.1049 74.03 90.098 71.4879 90.0994L71.4893 90.0976C69.0437 90.0976 66.5979 90.1019 64.1508 90.0976C62.7345 90.0947 62.025 89.4133 62.0466 88.0063C62.0682 86.622 61.8236 85.2079 62.3849 83.8719C63.3493 81.5775 65.2363 80.3079 67.5292 79.6036ZM65.9532 71.0563C66.1245 67.8291 68.6405 65.5036 71.8029 65.6512C75.1928 65.8088 77.3435 68.3588 77.1664 72.0134C77.0166 75.1072 74.3492 77.4727 71.1825 77.3208C68.0892 77.1716 65.7762 74.4014 65.9532 71.0563Z" fill="white"/>
<path d="M28.5975 176.403C30.5903 175.798 32.5508 175.881 34.3876 176.919C35.6377 177.625 36.3546 178.674 36.2827 180.145C36.2674 180.46 36.2827 180.776 36.2803 181.091C36.2762 181.814 35.8551 182.229 35.1012 182.232C33.6741 182.238 32.247 182.234 30.82 182.234L30.8208 182.233C29.4478 182.233 28.0746 182.236 26.7008 182.233C25.9058 182.232 25.5076 181.853 25.5197 181.072C25.5318 180.303 25.3942 179.517 25.7093 178.775C26.2508 177.5 27.3102 176.795 28.5975 176.403ZM42.2896 176.403C44.2824 175.798 46.2429 175.881 48.0798 176.919C49.3298 177.625 50.0467 178.674 49.9748 180.145C49.9595 180.46 49.9748 180.776 49.9724 181.091C49.9683 181.814 49.5472 182.229 48.7933 182.232C47.3662 182.238 45.9391 182.234 44.5121 182.234L44.5129 182.233C43.1399 182.233 41.7667 182.236 40.3929 182.233C39.5979 182.232 39.1997 181.853 39.2118 181.072C39.2239 180.303 39.0863 179.517 39.4014 178.775C39.9429 177.5 41.0023 176.795 42.2896 176.403ZM55.9817 176.403C57.9746 175.798 59.9351 175.881 61.7719 176.919C63.022 177.625 63.7388 178.674 63.667 180.145C63.6516 180.46 63.6669 180.776 63.6645 181.091C63.6604 181.814 63.2394 182.229 62.4854 182.232C61.0584 182.238 59.6313 182.234 58.2042 182.234L58.205 182.233C56.832 182.233 55.4589 182.236 54.0851 182.233C53.29 182.232 52.8919 181.853 52.9039 181.072C52.9161 180.303 52.7785 179.517 53.0936 178.775C53.635 177.5 54.6944 176.795 55.9817 176.403ZM30.997 168.652C32.9 168.74 34.1073 170.156 34.008 172.187C33.9239 173.905 32.4264 175.22 30.6486 175.135C28.912 175.052 27.6132 173.513 27.7126 171.655C27.8087 169.862 29.2216 168.57 30.997 168.652ZM44.6892 168.652C46.5921 168.74 47.7994 170.156 47.7001 172.187C47.616 173.905 46.1185 175.22 44.3407 175.135C42.6041 175.052 41.3053 173.513 41.4047 171.655C41.5009 169.862 42.9137 168.57 44.6892 168.652ZM58.3813 168.652C60.2842 168.74 61.4915 170.156 61.3922 172.187C61.3081 173.905 59.8106 175.22 58.0328 175.135C56.2962 175.052 54.9974 173.513 55.0968 171.655C55.193 169.862 56.6059 168.57 58.3813 168.652Z" fill="#A4FFD5"/>
<path d="M81.9256 176.403C83.9184 175.798 85.8789 175.881 87.7158 176.919C88.9658 177.625 89.6827 178.674 89.6108 180.145C89.5955 180.46 89.6108 180.776 89.6084 181.091C89.6043 181.814 89.1832 182.229 88.4293 182.232C87.0022 182.238 85.5752 182.234 84.1481 182.234L84.1489 182.233C82.7759 182.233 81.4028 182.236 80.0289 182.233C79.2339 182.232 78.8358 181.853 78.8478 181.072C78.8599 180.303 78.7224 179.517 79.0375 178.775C79.5789 177.5 80.6383 176.795 81.9256 176.403ZM95.6178 176.403C97.6106 175.798 99.5711 175.881 101.408 176.919C102.658 177.625 103.375 178.674 103.303 180.145C103.288 180.46 103.303 180.776 103.301 181.091C103.296 181.814 102.875 182.229 102.121 182.232C100.694 182.238 99.2673 182.234 97.8402 182.234L97.841 182.233C96.468 182.233 95.0949 182.236 93.7211 182.233C92.926 182.232 92.5279 181.853 92.5399 181.072C92.5521 180.303 92.4145 179.517 92.7296 178.775C93.271 177.5 94.3304 176.795 95.6178 176.403ZM109.31 176.403C111.303 175.798 113.263 175.881 115.1 176.919C116.35 177.625 117.067 178.674 116.995 180.145C116.98 180.46 116.995 180.776 116.993 181.091C116.989 181.814 116.567 182.229 115.814 182.232C114.386 182.238 112.959 182.234 111.532 182.234L111.533 182.233C110.16 182.233 108.787 182.236 107.413 182.233C106.618 182.232 106.22 181.853 106.232 181.072C106.244 180.303 106.107 179.517 106.422 178.775C106.963 177.5 108.023 176.795 109.31 176.403ZM84.3252 168.652C86.2281 168.74 87.4354 170.156 87.3361 172.187C87.252 173.905 85.7545 175.22 83.9767 175.135C82.2401 175.052 80.9413 173.513 81.0407 171.655C81.1369 169.862 82.5497 168.57 84.3252 168.652ZM98.0173 168.652C99.9202 168.74 101.128 170.156 101.028 172.187C100.944 173.905 99.4466 175.22 97.6688 175.135C95.9322 175.052 94.6334 173.513 94.7328 171.655C94.829 169.862 96.2419 168.57 98.0173 168.652ZM111.709 168.652C113.612 168.74 114.82 170.156 114.72 172.187C114.636 173.905 113.139 175.22 111.361 175.135C109.624 175.052 108.326 173.513 108.425 171.655C108.521 169.862 109.934 168.57 111.709 168.652Z" fill="#A4FFD5"/>
<path d="M41.687 128.71C44.4837 127.853 47.2352 127.971 49.813 129.439C51.5674 130.437 52.5732 131.922 52.4723 134.002C52.4507 134.448 52.4724 134.894 52.469 135.34C52.4633 136.362 51.8725 136.949 50.8144 136.953C48.8116 136.961 46.8088 136.956 44.806 136.957L44.807 136.955C42.8802 136.955 40.9532 136.959 39.0252 136.955C37.9093 136.953 37.3503 136.418 37.3673 135.312C37.3843 134.224 37.1916 133.113 37.6339 132.064C38.3937 130.261 39.8804 129.263 41.687 128.71ZM40.4453 121.994C40.5802 119.459 42.5626 117.631 45.0541 117.747C47.725 117.871 49.4194 119.875 49.2799 122.746C49.1619 125.177 47.0603 127.036 44.5653 126.916C42.1282 126.799 40.3058 124.623 40.4453 121.994Z" fill="#ADF7D5"/>
<path d="M94.4604 128.71C97.2571 127.853 100.009 127.971 102.586 129.439C104.341 130.437 105.347 131.922 105.246 134.002C105.224 134.448 105.246 134.894 105.242 135.34C105.237 136.362 104.646 136.949 103.588 136.953C101.585 136.961 99.5822 136.956 97.5794 136.957L97.5805 136.955C95.6536 136.955 93.7266 136.959 91.7986 136.955C90.6828 136.953 90.1238 136.418 90.1408 135.312C90.1578 134.224 89.965 133.113 90.4073 132.064C91.1671 130.261 92.6538 129.263 94.4604 128.71ZM93.2187 121.994C93.3537 119.459 95.336 117.631 97.8276 117.747C100.498 117.871 102.193 119.875 102.053 122.746C101.935 125.177 99.8337 127.036 97.3387 126.916C94.9016 126.799 93.0792 124.623 93.2187 121.994Z" fill="#ADF7D5"/>
<path d="M48.8008 153.689L47.9232 152.811L45.0663 155.662L45.0663 145.598L43.8215 145.598L43.8215 155.662L40.9647 152.805L40.0871 153.689L44.4439 158.046L48.8008 153.689Z" fill="#8BD07C"/>
<path d="M102.125 153.689L101.247 152.811L98.3906 155.662L98.3906 145.598L97.1458 145.598L97.1458 155.662L94.2889 152.805L93.4113 153.689L97.7682 158.046L102.125 153.689Z" fill="#8BD07C"/>
<g clip-path="url(#clip2_1459_3601)">
<path d="M171.473 108.016L171.473 106.774L167.436 106.77L174.554 99.6518L173.674 98.7714L166.556 105.889L166.556 101.848L165.31 101.853L165.31 108.016L171.473 108.016Z" fill="#8BD07C"/>
</g>
<g clip-path="url(#clip3_1459_3601)">
<path d="M194.281 108.008L194.281 106.766L198.318 106.762L191.2 99.6439L192.08 98.7635L199.198 105.882L199.198 101.841L200.444 101.845L200.444 108.008L194.281 108.008Z" fill="#8BD07C"/>
</g>
<path d="M178.904 79.6036C182.454 78.5132 185.946 78.6625 189.218 80.531C191.445 81.8018 192.721 83.6915 192.593 86.3395C192.566 86.906 192.593 87.474 192.589 88.0419C192.582 89.3424 191.832 90.0892 190.489 90.0949C187.947 90.1049 185.405 90.098 182.863 90.0994L182.864 90.0976C180.419 90.0976 177.973 90.1019 175.526 90.0976C174.11 90.0947 173.4 89.4133 173.422 88.0063C173.443 86.622 173.199 85.2079 173.76 83.8719C174.724 81.5775 176.611 80.3079 178.904 79.6036ZM177.328 71.0563C177.5 67.8291 180.016 65.5036 183.178 65.6512C186.568 65.8088 188.718 68.3588 188.541 72.0134C188.392 75.1072 185.724 77.4727 182.558 77.3208C179.464 77.1716 177.151 74.4014 177.328 71.0563Z" fill="white"/>
<path d="M139.973 176.403C141.965 175.798 143.926 175.881 145.763 176.919C147.013 177.625 147.73 178.674 147.658 180.145C147.642 180.46 147.658 180.776 147.655 181.091C147.651 181.814 147.23 182.229 146.476 182.232C145.049 182.238 143.622 182.234 142.195 182.234L142.196 182.233C140.823 182.233 139.45 182.236 138.076 182.233C137.281 182.232 136.883 181.853 136.895 181.072C136.907 180.303 136.769 179.517 137.084 178.775C137.626 177.5 138.685 176.795 139.973 176.403ZM153.665 176.403C155.657 175.798 157.618 175.881 159.455 176.919C160.705 177.625 161.422 178.674 161.35 180.145C161.334 180.46 161.35 180.776 161.347 181.091C161.343 181.814 160.922 182.229 160.168 182.232C158.741 182.238 157.314 182.234 155.887 182.234L155.888 182.233C154.515 182.233 153.142 182.236 151.768 182.233C150.973 182.232 150.575 181.853 150.587 181.072C150.599 180.303 150.461 179.517 150.776 178.775C151.318 177.5 152.377 176.795 153.665 176.403ZM167.357 176.403C169.35 175.798 171.31 175.881 173.147 176.919C174.397 177.625 175.114 178.674 175.042 180.145C175.027 180.46 175.042 180.776 175.04 181.091C175.035 181.814 174.614 182.229 173.86 182.232C172.433 182.238 171.006 182.234 169.579 182.234L169.58 182.233C168.207 182.233 166.834 182.236 165.46 182.233C164.665 182.232 164.267 181.853 164.279 181.072C164.291 180.303 164.153 179.517 164.469 178.775C165.01 177.5 166.069 176.795 167.357 176.403ZM142.372 168.652C144.275 168.74 145.482 170.156 145.383 172.187C145.299 173.905 143.801 175.22 142.024 175.135C140.287 175.052 138.988 173.513 139.088 171.655C139.184 169.862 140.597 168.57 142.372 168.652ZM156.064 168.652C157.967 168.74 159.174 170.156 159.075 172.187C158.991 173.905 157.493 175.22 155.716 175.135C153.979 175.052 152.68 173.513 152.78 171.655C152.876 169.862 154.289 168.57 156.064 168.652ZM169.756 168.652C171.659 168.74 172.867 170.156 172.767 172.187C172.683 173.905 171.186 175.22 169.408 175.135C167.671 175.052 166.372 173.513 166.472 171.655C166.568 169.862 167.981 168.57 169.756 168.652Z" fill="#A4FFD5"/>
<path d="M193.301 176.403C195.293 175.798 197.254 175.881 199.091 176.919C200.341 177.625 201.058 178.674 200.986 180.145C200.97 180.46 200.986 180.776 200.983 181.091C200.979 181.814 200.558 182.229 199.804 182.232C198.377 182.238 196.95 182.234 195.523 182.234L195.524 182.233C194.151 182.233 192.778 182.236 191.404 182.233C190.609 182.232 190.211 181.853 190.223 181.072C190.235 180.303 190.097 179.517 190.412 178.775C190.954 177.5 192.013 176.795 193.301 176.403ZM206.993 176.403C208.986 175.798 210.946 175.881 212.783 176.919C214.033 177.625 214.75 178.674 214.678 180.145C214.663 180.46 214.678 180.776 214.676 181.091C214.671 181.814 214.25 182.229 213.496 182.232C212.069 182.238 210.642 182.234 209.215 182.234L209.216 182.233C207.843 182.233 206.47 182.236 205.096 182.233C204.301 182.232 203.903 181.853 203.915 181.072C203.927 180.303 203.789 179.517 204.105 178.775C204.646 177.5 205.705 176.795 206.993 176.403ZM220.685 176.403C222.678 175.798 224.638 175.881 226.475 176.919C227.725 177.625 228.442 178.674 228.37 180.145C228.355 180.46 228.37 180.776 228.368 181.091C228.364 181.814 227.942 182.229 227.189 182.232C225.761 182.238 224.334 182.234 222.907 182.234L222.908 182.233C221.535 182.233 220.162 182.236 218.788 182.233C217.993 182.232 217.595 181.853 217.607 181.072C217.619 180.303 217.482 179.517 217.797 178.775C218.338 177.5 219.398 176.795 220.685 176.403ZM195.7 168.652C197.603 168.74 198.81 170.156 198.711 172.187C198.627 173.905 197.13 175.22 195.352 175.135C193.615 175.052 192.316 173.513 192.416 171.655C192.512 169.862 193.925 168.57 195.7 168.652ZM209.392 168.652C211.295 168.74 212.503 170.156 212.403 172.187C212.319 173.905 210.822 175.22 209.044 175.135C207.307 175.052 206.008 173.513 206.108 171.655C206.204 169.862 207.617 168.57 209.392 168.652ZM223.084 168.652C224.987 168.74 226.195 170.156 226.095 172.187C226.011 173.905 224.514 175.22 222.736 175.135C220.999 175.052 219.701 173.513 219.8 171.655C219.896 169.862 221.309 168.57 223.084 168.652Z" fill="#A4FFD5"/>
<path d="M153.062 128.71C155.859 127.853 158.61 127.971 161.188 129.439C162.942 130.437 163.948 131.922 163.847 134.002C163.826 134.448 163.847 134.894 163.844 135.34C163.838 136.362 163.247 136.949 162.189 136.953C160.187 136.961 158.184 136.956 156.181 136.957L156.182 136.955C154.255 136.955 152.328 136.959 150.4 136.955C149.284 136.953 148.725 136.418 148.742 135.312C148.759 134.224 148.567 133.113 149.009 132.064C149.769 130.261 151.255 129.263 153.062 128.71ZM151.82 121.994C151.955 119.459 153.938 117.631 156.429 117.747C159.1 117.871 160.794 119.875 160.655 122.746C160.537 125.177 158.435 127.036 155.94 126.916C153.503 126.799 151.681 124.623 151.82 121.994Z" fill="#ADF7D5"/>
<path d="M205.835 128.71C208.632 127.853 211.384 127.971 213.961 129.439C215.716 130.437 216.722 131.922 216.621 134.002C216.599 134.448 216.621 134.894 216.617 135.34C216.612 136.362 216.021 136.949 214.963 136.953C212.96 136.961 210.957 136.956 208.954 136.957L208.955 136.955C207.029 136.955 205.102 136.959 203.174 136.955C202.058 136.953 201.499 136.418 201.516 135.312C201.533 134.224 201.34 133.113 201.782 132.064C202.542 130.261 204.029 129.263 205.835 128.71ZM204.594 121.994C204.729 119.459 206.711 117.631 209.203 117.747C211.873 117.871 213.568 119.875 213.428 122.746C213.31 125.177 211.209 127.036 208.714 126.916C206.277 126.799 204.454 124.623 204.594 121.994Z" fill="#ADF7D5"/>
<path d="M160.176 153.689L159.298 152.811L156.441 155.662L156.441 145.598L155.197 145.598L155.197 155.662L152.34 152.805L151.462 153.689L155.819 158.046L160.176 153.689Z" fill="#8BD07C"/>
<path d="M213.5 153.689L212.622 152.811L209.766 155.662L209.766 145.598L208.521 145.598L208.521 155.662L205.664 152.805L204.786 153.689L209.143 158.046L213.5 153.689Z" fill="#8BD07C"/>
<path d="M146.551 20.2705H148.411L150.202 23.6531H150.278L152.069 20.2705H153.93L151.065 25.3483V28.125H149.415V25.3483L146.551 20.2705ZM161.58 24.1977C161.58 25.0543 161.418 25.783 161.093 26.3838C160.771 26.9847 160.331 27.4436 159.773 27.7607C159.219 28.0751 158.595 28.2324 157.902 28.2324C157.204 28.2324 156.577 28.0739 156.023 27.7568C155.468 27.4398 155.029 26.9808 154.707 26.38C154.385 25.7791 154.224 25.0517 154.224 24.1977C154.224 23.3412 154.385 22.6125 154.707 22.0116C155.029 21.4108 155.468 20.9531 156.023 20.6386C156.577 20.3216 157.204 20.1631 157.902 20.1631C158.595 20.1631 159.219 20.3216 159.773 20.6386C160.331 20.9531 160.771 21.4108 161.093 22.0116C161.418 22.6125 161.58 23.3412 161.58 24.1977ZM159.896 24.1977C159.896 23.6429 159.813 23.175 159.647 22.794C159.483 22.4131 159.252 22.1241 158.953 21.9273C158.654 21.7304 158.303 21.632 157.902 21.632C157.5 21.632 157.15 21.7304 156.851 21.9273C156.552 22.1241 156.319 22.4131 156.153 22.794C155.989 23.175 155.908 23.6429 155.908 24.1977C155.908 24.7526 155.989 25.2205 156.153 25.6014C156.319 25.9824 156.552 26.2713 156.851 26.4682C157.15 26.6651 157.5 26.7635 157.902 26.7635C158.303 26.7635 158.654 26.6651 158.953 26.4682C159.252 26.2713 159.483 25.9824 159.647 25.6014C159.813 25.2205 159.896 24.7526 159.896 24.1977ZM167.662 20.2705H169.322V25.3713C169.322 25.944 169.185 26.4452 168.912 26.8747C168.641 27.3043 168.261 27.6392 167.773 27.8795C167.284 28.1173 166.716 28.2362 166.066 28.2362C165.414 28.2362 164.844 28.1173 164.356 27.8795C163.867 27.6392 163.488 27.3043 163.217 26.8747C162.946 26.4452 162.81 25.944 162.81 25.3713V20.2705H164.471V25.2294C164.471 25.5286 164.536 25.7945 164.666 26.0271C164.799 26.2598 164.986 26.4426 165.226 26.5756C165.467 26.7085 165.747 26.775 166.066 26.775C166.388 26.775 166.668 26.7085 166.906 26.5756C167.146 26.4426 167.332 26.2598 167.462 26.0271C167.595 25.7945 167.662 25.5286 167.662 25.2294V20.2705Z" fill="white"/>
<path opacity="0.5" d="M248.496 81.7969V74.9241H249.949V80.5988H252.895V81.7969H248.496ZM256.374 74.9241V81.7969H254.92V76.3034H254.88L253.306 77.29V76.0014L255.008 74.9241H256.374Z" fill="black"/>
<path opacity="0.5" d="M248.496 130.398V123.526H249.949V129.2H252.895V130.398H248.496ZM253.817 130.398V129.351L256.264 127.086C256.472 126.885 256.646 126.704 256.787 126.543C256.93 126.382 257.039 126.224 257.113 126.069C257.187 125.913 257.223 125.744 257.223 125.563C257.223 125.361 257.178 125.188 257.086 125.043C256.994 124.895 256.869 124.782 256.71 124.704C256.551 124.623 256.371 124.583 256.17 124.583C255.959 124.583 255.776 124.625 255.619 124.71C255.463 124.795 255.342 124.917 255.257 125.076C255.172 125.235 255.129 125.424 255.129 125.643H253.75C253.75 125.194 253.852 124.803 254.056 124.472C254.259 124.141 254.544 123.885 254.911 123.704C255.278 123.522 255.701 123.432 256.18 123.432C256.672 123.432 257.1 123.519 257.465 123.694C257.832 123.866 258.117 124.105 258.321 124.412C258.524 124.718 258.626 125.069 258.626 125.465C258.626 125.725 258.575 125.981 258.472 126.234C258.371 126.487 258.191 126.767 257.932 127.076C257.672 127.383 257.306 127.751 256.834 128.18L255.831 129.163V129.21H258.717V130.398H253.817Z" fill="black"/>
<path opacity="0.5" d="M248.496 179V172.127H249.949V177.802H252.895V179H248.496ZM256.358 179.094C255.856 179.094 255.41 179.008 255.019 178.836C254.629 178.661 254.322 178.422 254.096 178.117C253.872 177.811 253.757 177.457 253.75 177.057H255.213C255.222 177.225 255.277 177.372 255.378 177.5C255.481 177.625 255.617 177.723 255.787 177.792C255.957 177.861 256.148 177.896 256.361 177.896C256.582 177.896 256.778 177.857 256.948 177.778C257.118 177.7 257.251 177.592 257.348 177.453C257.444 177.314 257.492 177.154 257.492 176.973C257.492 176.79 257.44 176.627 257.338 176.486C257.237 176.343 257.091 176.231 256.901 176.151C256.713 176.07 256.49 176.03 256.23 176.03H255.589V174.963H256.23C256.449 174.963 256.643 174.925 256.811 174.849C256.981 174.773 257.113 174.668 257.207 174.533C257.301 174.397 257.348 174.238 257.348 174.057C257.348 173.885 257.306 173.734 257.223 173.604C257.143 173.472 257.029 173.369 256.881 173.295C256.736 173.221 256.566 173.184 256.371 173.184C256.174 173.184 255.994 173.22 255.831 173.292C255.667 173.361 255.537 173.461 255.438 173.59C255.34 173.72 255.287 173.872 255.28 174.047H253.888C253.894 173.651 254.007 173.302 254.227 173C254.446 172.698 254.741 172.462 255.113 172.292C255.486 172.119 255.908 172.033 256.378 172.033C256.852 172.033 257.267 172.119 257.623 172.292C257.978 172.464 258.255 172.697 258.452 172.99C258.651 173.281 258.749 173.607 258.747 173.97C258.749 174.354 258.63 174.675 258.388 174.933C258.149 175.19 257.836 175.353 257.452 175.423V175.476C257.957 175.541 258.342 175.717 258.606 176.003C258.872 176.287 259.004 176.643 259.002 177.07C259.004 177.462 258.891 177.81 258.663 178.114C258.437 178.418 258.125 178.658 257.727 178.832C257.329 179.007 256.872 179.094 256.358 179.094Z" fill="black"/>
<defs>
<linearGradient id="paint0_linear_1459_3601" x1="15" y1="78.6367" x2="274" y2="78.6367" gradientUnits="userSpaceOnUse">
<stop stop-color="#D2FB95" stop-opacity="0.2"/>
<stop offset="1" stop-color="#D2FB95"/>
</linearGradient>
<linearGradient id="paint1_linear_1459_3601" x1="15" y1="127.137" x2="274" y2="127.137" gradientUnits="userSpaceOnUse">
<stop stop-color="#D2FB95" stop-opacity="0.2"/>
<stop offset="1" stop-color="#D2FB95"/>
</linearGradient>
<linearGradient id="paint2_linear_1459_3601" x1="15" y1="175.637" x2="274" y2="175.637" gradientUnits="userSpaceOnUse">
<stop stop-color="#D2FB95" stop-opacity="0.2"/>
<stop offset="1" stop-color="#D2FB95"/>
</linearGradient>
<clipPath id="clip0_1459_3601">
<rect width="14.9409" height="14.9409" fill="white" transform="translate(68.9062 103.609) rotate(135)"/>
</clipPath>
<clipPath id="clip1_1459_3601">
<rect width="14.9409" height="14.9409" fill="white" transform="matrix(0.707107 0.707107 0.707107 -0.707107 74.1016 103.609)"/>
</clipPath>
<clipPath id="clip2_1459_3601">
<rect width="14.9409" height="14.9409" fill="white" transform="translate(180.277 103.613) rotate(135)"/>
</clipPath>
<clipPath id="clip3_1459_3601">
<rect width="14.9409" height="14.9409" fill="white" transform="matrix(0.707107 0.707107 0.707107 -0.707107 185.477 103.605)"/>
</clipPath>
</defs>
</svg>
