<svg width="87" height="89" viewBox="0 0 87 89" fill="none" xmlns="http://www.w3.org/2000/svg">
<circle cx="44" cy="44" r="42" fill="#59977A"/>
<path d="M70 8L57 0.5L0.5 31V66.5L13.5 73L17 70.5V82L29.5 88.5L87 57V24L86 23L73.5 16L70 18V8Z" fill="white"/>
<path d="M16.5 40.5L17.5 39L37 28.5V25L25.5 18L34.5 13L46 20.5V23.5L65 13.5L66 15H67H68V19L67.5 19.5L17.5 46.5V65.5H16.5L16 66V41L16.5 40.5Z" fill="#D2FB95"/>
<path d="M33 56L32 57V81.5H33L34 82L34.5 83L53 73V76L62 71V67.5L82.5 56L83 54.5L84 54V31H83L82 30.5L81 29.5L62 39.5V36.5L50.5 29L41.5 34L53 41V44.5L33.5 55L33 56Z" fill="#D2FB95"/>
<path d="M29.5364 89H29.5309C29.5316 89 29.5324 88.9994 29.5331 88.9994C29.5342 88.9995 29.5353 89 29.5364 89ZM69.8777 7.21324C69.9689 7.22454 70.0589 7.25485 70.1429 7.30653C70.3404 7.42591 70.4587 7.6421 70.4588 7.87515V17.0897L73.5588 15.4038L86.4289 22.6226C86.5166 22.6341 86.6031 22.6628 86.6841 22.7103C86.8816 22.8297 86.9999 23.0459 87 23.279V56.5037C86.9999 56.7425 86.8703 56.9641 86.6615 57.0835L29.8529 88.915C29.7519 88.9715 29.6452 88.9991 29.5331 88.9994C29.4213 88.9988 29.304 88.9708 29.2034 88.9089C29.089 88.8416 29.0005 88.7433 28.9443 88.628L16.5412 81.9433V71.7049L13.3172 73.5112C13.2156 73.568 13.1081 73.5962 12.9952 73.5962H12.9897C12.8768 73.5962 12.7583 73.5676 12.6567 73.5051C12.541 73.4371 12.4521 73.3373 12.396 73.2203L0 66.5395V31.0181L57.0176 0L69.8777 7.21324ZM29.7228 53.4158V88.0166L52.739 75.1188V72.8982L34.1376 83.3199L34.132 83.3255V82.5975C34.132 82.1483 33.9006 81.7445 33.5168 81.5113C33.1329 81.2839 32.6699 81.2786 32.2747 81.4947L31.6479 81.8467V56.0545L31.8739 55.9351C32.5344 55.5883 32.9407 54.9058 32.9407 54.161V53.905L52.739 43.4416V41.2515L29.7228 53.4158ZM27.657 86.9665L28.876 87.624V53.4124L27.657 52.7722V86.9665ZM25.6812 85.9015L27.0925 86.6622V52.4757L25.6812 51.7343V85.9015ZM23.7053 84.8364L25.1166 85.5972V51.4378L23.7053 50.6965V84.8364ZM21.735 83.7741L23.1408 84.5321V50.4L21.735 49.6614V83.7741ZM19.7591 82.7091L21.1704 83.4698V49.3649L19.7591 48.6236V82.7091ZM17.7833 47.6729V81.6446L19.1946 82.4048V48.3271L17.8654 47.6291L17.7833 47.6729ZM33.782 54.4281C33.7029 55.3037 33.2341 56.0884 32.5002 56.5604V80.5218C32.9913 80.4251 33.4996 80.5106 33.9512 80.7778C34.3972 81.045 34.725 81.4546 34.8774 81.9322L52.739 71.922V44.4067L33.782 54.4281ZM53.5857 40.804V74.6446L61.4495 70.2378V36.6476L53.5857 40.804ZM13.1816 38.012V72.6128L16.5412 70.7292V65.9576C16.2706 65.9136 15.9922 65.9617 15.739 66.102L15.1122 66.4546L15.1067 66.449V40.6563L15.3327 40.5369C15.9932 40.19 16.3995 39.5076 16.3995 38.7627V38.5067L36.1978 28.0439V25.8477L13.1816 38.012ZM11.1158 71.5633L12.3293 72.2174V38.0081L11.1158 37.3706V71.5633ZM9.13999 70.4982L10.5513 71.259V37.0741L9.13999 36.3328V70.4982ZM40.9345 61.985C42.0636 61.3539 43.1642 61.2632 43.9545 61.7352C44.6376 62.1446 45.0163 62.9178 45.0163 63.9186C45.0163 66.011 43.4016 68.5468 41.3469 69.6897C40.6921 70.0536 40.0483 70.2356 39.4725 70.2356C39.0491 70.2356 38.6594 70.1392 38.3263 69.9402C37.6433 69.5308 37.2651 68.7574 37.2651 67.7567C37.2651 65.6642 38.8796 63.128 40.9345 61.985ZM7.16414 69.4332L8.57546 70.1939V36.0362L7.16414 35.2949V69.4332ZM62.2963 36.2001V38.3973L81.7842 28.0956V28.8002C81.7842 29.2437 82.0097 29.6478 82.3878 29.8753C82.766 30.1084 83.2233 30.1194 83.6128 29.9147L84.2341 29.5854V53.8256L84.0136 53.945C83.3815 54.2976 82.9921 54.9686 82.9921 55.6964V55.9462L62.2963 67.5396V69.7636L86.1532 56.3955V23.5921L62.2963 36.2001ZM42.8145 62.2866C42.3854 62.2866 41.8831 62.4346 41.3524 62.7302C39.5685 63.7253 38.1174 65.977 38.1174 67.7567C38.1174 68.4504 38.3436 68.9508 38.7613 69.2066C39.2863 69.5192 40.0821 69.4226 40.94 68.9451C42.7239 67.9557 44.175 65.6983 44.1751 63.9186C44.1751 63.2248 43.9489 62.724 43.5312 62.4681C43.328 62.3489 43.0853 62.2866 42.8145 62.2866ZM5.18828 68.3681L6.5996 69.1289V34.9984L5.18828 34.2571V68.3681ZM3.21793 67.3058L4.62375 68.0638V33.9606L3.21793 33.222V67.3058ZM1.24208 32.2691V66.2408L2.6534 67.0015V32.9255L1.32202 32.2264L1.24208 32.2691ZM62.2963 39.3624V66.5656L82.1508 55.4404C82.2242 54.5874 82.6818 53.814 83.3818 53.3364V30.8815C82.8908 30.9667 82.3882 30.876 81.9479 30.6088C81.5076 30.3416 81.1912 29.932 81.0388 29.4544L62.2963 39.3624ZM17.2408 39.0298C17.1618 39.9055 16.6929 40.6902 15.959 41.1621V65.1241C16.1509 65.0877 16.3472 65.0787 16.5412 65.0975V46.4219L36.1978 35.7281V29.009L17.2408 39.0298ZM27.9443 51.9609L29.3065 52.6767L52.304 40.5208L51.0239 39.7384L27.9443 51.9609ZM26.1117 50.9986L27.3329 51.6399L50.4648 39.3969L49.3303 38.7039L26.1117 50.9986ZM74.5186 43.3C75.6476 42.6746 76.7483 42.5782 77.5386 43.0501C78.2217 43.4595 78.5998 44.2328 78.5999 45.2335C78.5999 47.3261 76.9853 49.8623 74.9304 51.0052C74.2757 51.369 73.6322 51.5511 73.0565 51.5511C72.6331 51.5511 72.2435 51.4541 71.9104 51.2551C71.2273 50.8457 70.8491 50.0725 70.8491 49.0717C70.8491 46.9792 72.4637 44.4429 74.5186 43.3ZM76.3985 43.6015C75.9695 43.6015 75.4671 43.7496 74.9365 44.0452C73.1526 45.0346 71.7015 47.2919 71.7014 49.0717C71.7014 49.7653 71.9272 50.2657 72.3448 50.5216C72.8698 50.8343 73.666 50.7377 74.5241 50.26C76.308 49.2706 77.7591 47.0133 77.7591 45.2335C77.7591 44.5398 77.533 44.0395 77.1152 43.7837C76.912 43.6643 76.6694 43.6016 76.3985 43.6015ZM24.2737 50.0329L25.5004 50.6771L48.7635 38.3574L47.6339 37.6671L24.2737 50.0329ZM22.4434 49.0717L23.6678 49.7147L47.0699 37.3223L45.9354 36.6293L22.4434 49.0717ZM20.6098 48.1088L21.8342 48.7519L45.3763 36.2872L44.2423 35.5942L20.6098 48.1088ZM18.7767 47.1465L20.0017 47.7896L43.6805 35.2511L42.546 34.558L18.7767 47.1465ZM17.8709 46.6706L18.1631 46.8239L41.9814 34.2132L41.4092 33.8639L17.8709 46.6706ZM42.2725 33.3942L53.1822 40.0571L61.1457 35.8474L50.1352 29.1162L42.2725 33.3942ZM11.4009 36.5582L12.7576 37.2712L35.7578 25.1142L34.4827 24.3351L11.4009 36.5582ZM9.56835 35.5959L10.7895 36.2373L33.9154 23.9886L32.7885 23.3001L9.56835 35.5959ZM60.7344 34.5958L62.0239 35.3832L85.4067 23.0252L84.0428 22.26L60.7344 34.5958ZM7.72977 34.6302L8.95696 35.2749L32.2223 22.9536L31.0927 22.2633L7.72977 34.6302ZM37.0446 25.4002V35.2677L44.9083 30.9897V21.2438L37.0446 25.4002ZM5.89725 33.6674L7.12389 34.3121L30.5288 21.9185L29.3942 21.2255L5.89725 33.6674ZM59.0342 33.5569L60.1716 34.2515L83.4535 21.9296L82.2638 21.2621L59.0342 33.5569ZM4.06638 32.7062L5.29082 33.3492L28.8324 20.8823L27.7006 20.191L4.06638 32.7062ZM57.3401 32.5224L58.4708 33.2131L81.675 20.9317L80.493 20.2687L57.3401 32.5224ZM2.23331 31.7438L3.4583 32.3869L27.1388 19.8473L26.0042 19.1542L2.23331 31.7438ZM55.6366 31.4823L56.7767 32.1786L79.9037 19.9378L78.7118 19.2692L55.6366 31.4823ZM1.32753 31.2679L1.61972 31.4212L25.4403 18.8094L24.868 18.4601L1.32753 31.2679ZM53.9446 30.4489L55.0732 31.138L78.1224 18.9388L76.9426 18.2769L53.9446 30.4489ZM45.7551 23.9448V30.5289L66.8346 19.0615V15.4721C66.3435 15.5573 65.8409 15.4662 65.4006 15.1933C64.9605 14.9261 64.6445 14.5169 64.4921 14.0395L45.7551 23.9448ZM52.2483 29.4127L53.3812 30.1046L76.3533 17.9465L75.1691 17.2824L52.2483 29.4127ZM50.9957 28.6481L51.6854 29.069L74.5792 16.9514L73.5533 16.3761L50.9957 28.6481ZM25.7313 17.9904L36.6355 24.65L44.599 20.4403L33.5912 13.714L25.7313 17.9904ZM45.7551 20.7962V22.9819L65.2314 12.6856V13.3909C65.2314 13.8344 65.4574 14.2385 65.8356 14.4659C66.2138 14.6933 66.6711 14.71 67.0606 14.5053L67.6814 14.1755V18.6006L69.612 17.5506V8.18834L45.7551 20.7962ZM44.185 19.1865L45.4772 19.9761L68.8595 7.61805L67.4923 6.85119L44.185 19.1865ZM42.4969 18.1558L43.6216 18.8427L66.9029 6.52024L65.7276 5.86055L42.4969 18.1558ZM40.7928 17.1147L41.9335 17.8116L65.1388 5.53071L63.9458 4.86103L40.7928 17.1147ZM39.0998 16.0813L40.2294 16.7709L63.3559 4.53063L62.175 3.86817L39.0998 16.0813ZM37.4029 15.0445L38.5364 15.737L61.5862 3.53777L60.4009 2.87253L37.4029 15.0445ZM35.7071 14.0089L36.8395 14.7002L59.8116 2.54213L58.6274 1.878L35.7071 14.0089ZM34.4546 13.2443L35.1437 13.6646L58.038 1.5476L57.0121 0.972317L34.4546 13.2443Z" fill="black"/>
</svg>
