<svg width="56" height="56" viewBox="0 0 56 56" fill="none" xmlns="http://www.w3.org/2000/svg">
<path d="M44.3333 16.3333H21C18.4333 16.3333 16.3333 18.4333 16.3333 21V44.3333C16.3333 46.9 18.4333 49 21 49H44.3333C46.9 49 49 46.9 49 44.3333V21C49 18.4333 46.9 16.3333 44.3333 16.3333ZM44.3333 21V25.6667H21V21H44.3333ZM30.3333 35V30.3333H35V35H30.3333ZM35 39.6667V44.3333H30.3333V39.6667H35ZM25.6667 35H21V30.3333H25.6667V35ZM39.6667 30.3333H44.3333V35H39.6667V30.3333ZM21 39.6667H25.6667V44.3333H21V39.6667ZM39.6667 44.3333V39.6667H44.3333V44.3333H39.6667ZM14 39.6667H11.6667C9.1 39.6667 7 37.5667 7 35V11.6667C7 9.1 9.1 7 11.6667 7H35C37.5667 7 39.6667 9.1 39.6667 11.6667V14H35V11.6667H11.6667V35H14V39.6667Z" fill="currentColor"/>
</svg>
