<svg width="24" height="24" viewBox="0 0 24 24" fill="none" xmlns="http://www.w3.org/2000/svg">
<mask id="mask0_748_11598" style="mask-type:alpha" maskUnits="userSpaceOnUse" x="1" y="0" width="22" height="24">
<path d="M11.7494 0L1.11328 5.95145L1.12129 17.9791L11.7163 24L22.386 17.984V5.95145L11.7494 0Z" fill="#FF00FF"/>
</mask>
<g mask="url(#mask0_748_11598)">
<path d="M21.6357 6.3916V17.5459L11.7178 23.1377L1.87012 17.542L1.86328 6.38965L11.748 0.858398L21.6357 6.3916Z" fill="#D2FB95" stroke="#AAD36D" stroke-width="1.5"/>
<path d="M21.3857 6.53711V17.3994L11.7178 22.8506L2.12012 17.3965L2.11328 6.53711L11.749 1.14551L21.3857 6.53711Z" stroke="#AAD36D" stroke-width="2"/>
<path d="M11.7492 8.87783L13.1927 7.11227C13.1971 7.11237 15.6714 7.16503 18.1341 8.31105C17.5024 9.26347 16.2501 9.73242 16.2501 9.73242C16.1651 8.89327 15.5762 8.68766 13.7094 8.68766L11.7508 19.75L9.77639 8.68605C7.92206 8.68738 7.3339 8.89299 7.24839 9.7322C7.24337 9.73032 5.99429 9.26134 5.36447 8.31083C7.82897 7.16378 10.3056 7.11198 10.3056 7.11198L11.7492 8.87783ZM11.7497 5.75C13.8078 5.75871 16.1979 6.10574 18.75 7.11977C18.7497 7.12075 18.6691 7.37015 18.3577 7.93308C16.0231 6.91118 13.7425 6.58632 11.75 6.60162H11.7497C9.7572 6.58632 7.4762 6.91118 5.14198 7.93308C4.86447 7.42795 4.75051 7.12114 4.75 7.11977C7.30179 6.1058 9.69172 5.7587 11.7497 5.75Z" fill="black"/>
</g>
</svg>
