<svg width="252" height="185" viewBox="0 0 252 185" fill="none" xmlns="http://www.w3.org/2000/svg">
<rect y="55.9219" width="233.1" height="31.5" rx="7.2" fill="#EEEEEE"/>
<path d="M239.042 75.418V68.1452H240.58V74.1502H243.698V75.418H239.042ZM247.379 68.1452V75.418H245.841V69.6048H245.798L244.133 70.6488V69.2852L245.933 68.1452H247.379Z" fill="#18181B"/>
<rect y="105.301" width="233.1" height="30.6" rx="7.2" fill="#EEEEEE"/>
<path d="M239.042 124.438V117.165H240.58V123.17H243.698V124.438H239.042ZM244.673 124.438V123.33L247.262 120.933C247.482 120.719 247.667 120.528 247.816 120.357C247.968 120.187 248.083 120.02 248.161 119.857C248.239 119.691 248.278 119.512 248.278 119.32C248.278 119.107 248.229 118.924 248.132 118.77C248.035 118.614 247.903 118.494 247.735 118.411C247.566 118.326 247.376 118.283 247.163 118.283C246.94 118.283 246.746 118.328 246.58 118.418C246.415 118.508 246.287 118.637 246.197 118.805C246.107 118.973 246.062 119.174 246.062 119.406H244.602C244.602 118.93 244.71 118.517 244.926 118.166C245.141 117.816 245.443 117.545 245.831 117.353C246.219 117.161 246.667 117.065 247.173 117.065C247.694 117.065 248.148 117.158 248.534 117.342C248.922 117.525 249.224 117.778 249.439 118.102C249.655 118.427 249.762 118.798 249.762 119.217C249.762 119.492 249.708 119.763 249.599 120.031C249.492 120.298 249.302 120.595 249.027 120.922C248.753 121.246 248.365 121.636 247.866 122.09L246.804 123.131V123.18H249.858V124.438H244.673Z" fill="#18181B"/>
<rect y="153" width="233.1" height="31.5" rx="7.2" fill="#EEEEEE"/>
<path d="M239.042 172.676V165.403H240.58V171.408H243.698V172.676H239.042ZM247.362 172.775C246.831 172.775 246.359 172.684 245.945 172.502C245.533 172.317 245.207 172.064 244.968 171.742C244.731 171.417 244.61 171.043 244.602 170.62H246.151C246.16 170.797 246.218 170.953 246.325 171.088C246.434 171.221 246.578 171.324 246.758 171.397C246.938 171.471 247.14 171.507 247.365 171.507C247.6 171.507 247.807 171.466 247.987 171.383C248.167 171.3 248.307 171.185 248.409 171.039C248.511 170.892 248.562 170.723 248.562 170.531C248.562 170.337 248.508 170.165 248.399 170.016C248.292 169.864 248.138 169.746 247.937 169.661C247.738 169.576 247.501 169.533 247.227 169.533H246.548V168.404H247.227C247.459 168.404 247.664 168.364 247.841 168.283C248.021 168.203 248.161 168.091 248.26 167.949C248.36 167.805 248.409 167.637 248.409 167.445C248.409 167.263 248.365 167.103 248.278 166.966C248.193 166.826 248.072 166.717 247.916 166.639C247.762 166.561 247.582 166.522 247.376 166.522C247.168 166.522 246.977 166.56 246.804 166.635C246.631 166.709 246.493 166.814 246.389 166.951C246.285 167.089 246.229 167.25 246.222 167.434H244.748C244.755 167.015 244.875 166.646 245.107 166.326C245.339 166.007 245.651 165.757 246.044 165.577C246.44 165.395 246.886 165.304 247.383 165.304C247.885 165.304 248.324 165.395 248.7 165.577C249.077 165.759 249.369 166.006 249.578 166.316C249.788 166.623 249.892 166.969 249.89 167.353C249.892 167.76 249.766 168.1 249.51 168.372C249.257 168.644 248.927 168.817 248.519 168.89V168.947C249.054 169.016 249.462 169.202 249.741 169.505C250.023 169.805 250.162 170.182 250.16 170.634C250.162 171.048 250.043 171.416 249.801 171.738C249.562 172.06 249.232 172.314 248.811 172.498C248.389 172.683 247.906 172.775 247.362 172.775Z" fill="#18181B"/>
<path d="M116.596 0.253906L102.896 8.21556L102.852 23.8573L116.641 31.8189L130.342 23.8572L130.386 8.21543L116.596 0.253906Z" fill="#D2FB95"/>
<g style="mix-blend-mode:multiply">
<path d="M130.499 8.02344L130.455 23.7907L116.645 31.8162L116.689 16.049L130.499 8.02344Z" fill="#BFBFBF"/>
<path d="M116.691 16.0488L116.646 31.8161L102.746 23.7906L102.791 8.02344L116.691 16.0488Z" fill="#7F7F7F"/>
<path d="M130.502 8.02542L116.691 16.0509L102.791 8.02556L116.601 0L130.502 8.02542Z" fill="white"/>
</g>
<path d="M67.0303 58.6914L56.8123 64.6294L56.7793 76.2954L67.0641 82.2334L77.282 76.2953L77.3151 64.6293L67.0303 58.6914Z" fill="#D2FB95"/>
<g style="mix-blend-mode:multiply">
<path d="M77.3958 64.4844L77.3624 76.244L67.0625 82.2296L67.0958 70.47L77.3958 64.4844Z" fill="#BFBFBF"/>
<path d="M67.0998 70.4699L67.0665 82.2295L56.6992 76.2439L56.7326 64.4844L67.0998 70.4699Z" fill="#7F7F7F"/>
<path d="M77.3996 64.4856L67.0997 70.4712L56.7324 64.4857L67.0323 58.5L77.3996 64.4856Z" fill="white"/>
</g>
<path d="M166.03 58.6914L155.812 64.6294L155.779 76.2954L166.064 82.2334L176.282 76.2953L176.315 64.6293L166.03 58.6914Z" fill="#D2FB95"/>
<g style="mix-blend-mode:multiply">
<path d="M176.396 64.4844L176.362 76.244L166.062 82.2296L166.096 70.47L176.396 64.4844Z" fill="#BFBFBF"/>
<path d="M166.1 70.4699L166.066 82.2295L155.699 76.2439L155.733 64.4844L166.1 70.4699Z" fill="#7F7F7F"/>
<path d="M176.4 64.4856L166.1 70.4712L155.732 64.4857L166.032 58.5L176.4 64.4856Z" fill="white"/>
</g>
<path d="M138.367 12.2008L139.987 15.5608L140.119 16.3888H140.335L140.467 15.5608L142.111 12.2008H144.139L141.175 18.1288V21.8008H139.147V18.1288L136.195 12.2008H138.367ZM148.546 22.0288C147.306 22.0288 146.366 21.6048 145.726 20.7568C145.086 19.9088 144.766 18.6568 144.766 17.0008C144.766 15.3448 145.086 14.0928 145.726 13.2448C146.366 12.3968 147.306 11.9728 148.546 11.9728C149.786 11.9728 150.726 12.3968 151.366 13.2448C152.006 14.0928 152.326 15.3448 152.326 17.0008C152.326 18.6568 152.006 19.9088 151.366 20.7568C150.726 21.6048 149.786 22.0288 148.546 22.0288ZM148.546 20.1808C149.138 20.1808 149.578 19.9208 149.866 19.4008C150.154 18.8728 150.298 18.0728 150.298 17.0008C150.298 15.9288 150.154 15.1328 149.866 14.6128C149.578 14.0848 149.138 13.8208 148.546 13.8208C147.954 13.8208 147.514 14.0848 147.226 14.6128C146.938 15.1328 146.794 15.9288 146.794 17.0008C146.794 18.0728 146.938 18.8728 147.226 19.4008C147.514 19.9208 147.954 20.1808 148.546 20.1808ZM153.468 12.2008H155.496V18.3688C155.496 18.9448 155.628 19.3928 155.892 19.7128C156.156 20.0248 156.52 20.1808 156.984 20.1808C157.464 20.1808 157.832 20.0208 158.088 19.7008C158.352 19.3728 158.484 18.9128 158.484 18.3208V12.2008H160.428V18.4288C160.428 19.5808 160.128 20.4688 159.528 21.0928C158.936 21.7168 158.076 22.0288 156.948 22.0288C155.82 22.0288 154.956 21.7168 154.356 21.0928C153.764 20.4688 153.468 19.5808 153.468 18.4288V12.2008Z" fill="#18181B"/>
<path d="M42.2841 110.848L34.2876 115.495L34.2617 124.624L42.3106 129.271L50.3071 124.624L50.333 115.495L42.2841 110.848Z" fill="#D2FB95"/>
<g style="mix-blend-mode:multiply">
<path d="M50.3973 115.383L50.3712 124.586L42.3105 129.27L42.3366 120.067L50.3973 115.383Z" fill="#BFBFBF"/>
<path d="M42.3387 120.067L42.3126 129.27L34.1992 124.586L34.2253 115.383L42.3387 120.067Z" fill="#7F7F7F"/>
<path d="M50.4007 115.383L42.34 120.068L34.2266 115.384L42.2872 110.699L50.4007 115.383Z" fill="white"/>
</g>
<path d="M89.9833 110.848L81.9868 115.495L81.9609 124.624L90.0098 129.271L98.0063 124.624L98.0322 115.495L89.9833 110.848Z" fill="#D2FB95"/>
<g style="mix-blend-mode:multiply">
<path d="M98.0966 115.383L98.0704 124.586L90.0098 129.27L90.0359 120.067L98.0966 115.383Z" fill="#BFBFBF"/>
<path d="M90.0379 120.067L90.0118 129.27L81.8984 124.586L81.9245 115.383L90.0379 120.067Z" fill="#7F7F7F"/>
<path d="M98.0999 115.383L90.0392 120.068L81.9258 115.384L89.9865 110.699L98.0999 115.383Z" fill="white"/>
</g>
<path d="M143.083 110.848L135.086 115.495L135.061 124.624L143.109 129.271L151.106 124.624L151.132 115.495L143.083 110.848Z" fill="#D2FB95"/>
<g style="mix-blend-mode:multiply">
<path d="M151.196 115.383L151.17 124.586L143.109 129.27L143.135 120.067L151.196 115.383Z" fill="#BFBFBF"/>
<path d="M143.139 120.067L143.113 129.27L135 124.586L135.026 115.383L143.139 120.067Z" fill="#7F7F7F"/>
<path d="M151.199 115.383L143.139 120.068L135.025 115.384L143.086 110.699L151.199 115.383Z" fill="white"/>
</g>
<path d="M190.784 110.848L182.788 115.495L182.762 124.624L190.811 129.271L198.807 124.624L198.833 115.495L190.784 110.848Z" fill="#D2FB95"/>
<g style="mix-blend-mode:multiply">
<path d="M198.897 115.383L198.871 124.586L190.811 129.27L190.837 120.067L198.897 115.383Z" fill="#BFBFBF"/>
<path d="M190.839 120.067L190.813 129.27L182.699 124.586L182.725 115.383L190.839 120.067Z" fill="#7F7F7F"/>
<path d="M198.901 115.383L190.84 120.068L182.727 115.384L190.787 110.699L198.901 115.383Z" fill="white"/>
</g>
<path d="M31.1925 162.992L26.155 165.92L26.1387 171.672L31.2092 174.599L36.2467 171.672L36.263 165.92L31.1925 162.992Z" fill="#D2FB95"/>
<g style="mix-blend-mode:multiply">
<path d="M36.3034 165.852L36.2869 171.649L31.209 174.601L31.2254 168.803L36.3034 165.852Z" fill="#BFBFBF"/>
<path d="M31.2272 168.803L31.2108 174.601L26.0996 171.649L26.116 165.852L31.2272 168.803Z" fill="#7F7F7F"/>
<path d="M36.3044 165.85L31.2264 168.801L26.1152 165.85L31.1932 162.898L36.3044 165.85Z" fill="white"/>
</g>
<path d="M42.296 162.992L37.2585 165.92L37.2422 171.672L42.3127 174.599L47.3502 171.672L47.3665 165.92L42.296 162.992Z" fill="#D2FB95"/>
<g style="mix-blend-mode:multiply">
<path d="M47.4069 165.852L47.3905 171.649L42.3125 174.601L42.3289 168.803L47.4069 165.852Z" fill="#BFBFBF"/>
<path d="M42.3307 168.803L42.3143 174.601L37.2031 171.649L37.2196 165.852L42.3307 168.803Z" fill="#7F7F7F"/>
<path d="M47.4079 165.85L42.3299 168.801L37.2188 165.85L42.2967 162.898L47.4079 165.85Z" fill="white"/>
</g>
<path d="M53.4015 162.992L48.3639 165.92L48.3477 171.672L53.4182 174.599L58.4557 171.672L58.472 165.92L53.4015 162.992Z" fill="#D2FB95"/>
<g style="mix-blend-mode:multiply">
<path d="M58.5143 165.852L58.4979 171.649L53.4199 174.601L53.4364 168.803L58.5143 165.852Z" fill="#BFBFBF"/>
<path d="M53.4362 168.803L53.4198 174.601L48.3086 171.649L48.325 165.852L53.4362 168.803Z" fill="#7F7F7F"/>
<path d="M58.5134 165.85L53.4354 168.801L48.3242 165.85L53.4022 162.898L58.5134 165.85Z" fill="white"/>
</g>
<path d="M78.8917 162.992L73.8542 165.92L73.8379 171.672L78.9084 174.599L83.9459 171.672L83.9622 165.92L78.8917 162.992Z" fill="#D2FB95"/>
<g style="mix-blend-mode:multiply">
<path d="M84.0046 165.852L83.9881 171.649L78.9102 174.601L78.9266 168.803L84.0046 165.852Z" fill="#BFBFBF"/>
<path d="M78.9264 168.803L78.91 174.601L73.7988 171.649L73.8153 165.852L78.9264 168.803Z" fill="#7F7F7F"/>
<path d="M84.0036 165.85L78.9256 168.801L73.8145 165.85L78.8924 162.898L84.0036 165.85Z" fill="white"/>
</g>
<path d="M89.9952 162.992L84.9577 165.92L84.9414 171.672L90.0119 174.599L95.0494 171.672L95.0658 165.92L89.9952 162.992Z" fill="#D2FB95"/>
<g style="mix-blend-mode:multiply">
<path d="M95.1081 165.852L95.0916 171.649L90.0137 174.601L90.0301 168.803L95.1081 165.852Z" fill="#BFBFBF"/>
<path d="M90.0319 168.803L90.0155 174.601L84.9043 171.649L84.9207 165.852L90.0319 168.803Z" fill="#7F7F7F"/>
<path d="M95.1091 165.85L90.0311 168.801L84.9199 165.85L89.9979 162.898L95.1091 165.85Z" fill="white"/>
</g>
<path d="M101.103 162.992L96.0651 165.92L96.0488 171.672L101.119 174.599L106.157 171.672L106.173 165.92L101.103 162.992Z" fill="#D2FB95"/>
<g style="mix-blend-mode:multiply">
<path d="M106.214 165.852L106.197 171.649L101.119 174.601L101.136 168.803L106.214 165.852Z" fill="#BFBFBF"/>
<path d="M101.137 168.803L101.121 174.601L96.0098 171.649L96.0262 165.852L101.137 168.803Z" fill="#7F7F7F"/>
<path d="M106.215 165.85L101.137 168.801L96.0254 165.85L101.103 162.898L106.215 165.85Z" fill="white"/>
</g>
<path d="M131.091 162.992L126.053 165.92L126.037 171.672L131.108 174.599L136.145 171.672L136.161 165.92L131.091 162.992Z" fill="#D2FB95"/>
<g style="mix-blend-mode:multiply">
<path d="M136.204 165.852L136.187 171.649L131.109 174.601L131.126 168.803L136.204 165.852Z" fill="#BFBFBF"/>
<path d="M131.128 168.803L131.111 174.601L126 171.649L126.016 165.852L131.128 168.803Z" fill="#7F7F7F"/>
<path d="M136.205 165.85L131.127 168.801L126.016 165.85L131.094 162.898L136.205 165.85Z" fill="white"/>
</g>
<path d="M142.196 162.992L137.159 165.92L137.143 171.672L142.213 174.599L147.251 171.672L147.267 165.92L142.196 162.992Z" fill="#D2FB95"/>
<g style="mix-blend-mode:multiply">
<path d="M147.307 165.852L147.291 171.649L142.213 174.601L142.229 168.803L147.307 165.852Z" fill="#BFBFBF"/>
<path d="M142.231 168.803L142.215 174.601L137.104 171.649L137.12 165.852L142.231 168.803Z" fill="#7F7F7F"/>
<path d="M147.308 165.85L142.23 168.801L137.119 165.85L142.197 162.898L147.308 165.85Z" fill="white"/>
</g>
<path d="M153.302 162.992L148.264 165.92L148.248 171.672L153.319 174.599L158.356 171.672L158.372 165.92L153.302 162.992Z" fill="#D2FB95"/>
<g style="mix-blend-mode:multiply">
<path d="M158.413 165.852L158.396 171.649L153.318 174.601L153.335 168.803L158.413 165.852Z" fill="#BFBFBF"/>
<path d="M153.337 168.803L153.32 174.601L148.209 171.649L148.225 165.852L153.337 168.803Z" fill="#7F7F7F"/>
<path d="M158.414 165.85L153.336 168.801L148.225 165.85L153.303 162.898L158.414 165.85Z" fill="white"/>
</g>
<path d="M179.693 162.992L174.655 165.92L174.639 171.672L179.709 174.599L184.747 171.672L184.763 165.92L179.693 162.992Z" fill="#D2FB95"/>
<g style="mix-blend-mode:multiply">
<path d="M184.803 165.852L184.787 171.649L179.709 174.601L179.725 168.803L184.803 165.852Z" fill="#BFBFBF"/>
<path d="M179.727 168.803L179.711 174.601L174.6 171.649L174.616 165.852L179.727 168.803Z" fill="#7F7F7F"/>
<path d="M184.804 165.85L179.726 168.801L174.615 165.85L179.693 162.898L184.804 165.85Z" fill="white"/>
</g>
<path d="M190.796 162.992L185.758 165.92L185.742 171.672L190.813 174.599L195.85 171.672L195.867 165.92L190.796 162.992Z" fill="#D2FB95"/>
<g style="mix-blend-mode:multiply">
<path d="M195.907 165.852L195.89 171.649L190.812 174.601L190.829 168.803L195.907 165.852Z" fill="#BFBFBF"/>
<path d="M190.831 168.803L190.814 174.601L185.703 171.649L185.72 165.852L190.831 168.803Z" fill="#7F7F7F"/>
<path d="M195.908 165.85L190.83 168.801L185.719 165.85L190.797 162.898L195.908 165.85Z" fill="white"/>
</g>
<path d="M201.901 162.992L196.864 165.92L196.848 171.672L201.918 174.599L206.956 171.672L206.972 165.92L201.901 162.992Z" fill="#D2FB95"/>
<g style="mix-blend-mode:multiply">
<path d="M207.014 165.852L206.998 171.649L201.92 174.601L201.936 168.803L207.014 165.852Z" fill="#BFBFBF"/>
<path d="M201.936 168.803L201.92 174.601L196.809 171.649L196.825 165.852L201.936 168.803Z" fill="#7F7F7F"/>
<path d="M207.013 165.85L201.935 168.801L196.824 165.85L201.902 162.898L207.013 165.85Z" fill="white"/>
</g>
<path d="M67.5 54.4492L70.0981 49.9492H64.9019L67.5 54.4492ZM166.5 54.4492L169.098 49.9492H163.902L166.5 54.4492ZM67.5 50.3992H67.95V42.7492H67.5H67.05V50.3992H67.5ZM69.3 40.9492V41.3992H164.7V40.9492V40.4992H69.3V40.9492ZM166.5 42.7492H166.05V50.3992H166.5H166.95V42.7492H166.5ZM164.7 40.9492V41.3992C165.446 41.3992 166.05 42.0036 166.05 42.7492H166.5H166.95C166.95 41.5066 165.943 40.4992 164.7 40.4992V40.9492ZM67.5 42.7492H67.95C67.95 42.0036 68.5544 41.3992 69.3 41.3992V40.9492V40.4992C68.0574 40.4992 67.05 41.5066 67.05 42.7492H67.5Z" fill="black"/>
<path d="M42.2988 104.399L44.8969 99.8992H39.7008L42.2988 104.399ZM89.9988 104.399L92.5969 99.8992H87.4008L89.9988 104.399ZM42.2988 100.349H42.7488V94.4992H42.2988H41.8488V100.349H42.2988ZM44.0988 92.6992V93.1492H88.1988V92.6992V92.2492H44.0988V92.6992ZM89.9988 94.4992H89.5488V100.349H89.9988H90.4488V94.4992H89.9988ZM88.1988 92.6992V93.1492C88.9444 93.1492 89.5488 93.7536 89.5488 94.4992H89.9988H90.4488C90.4488 93.2566 89.4415 92.2492 88.1988 92.2492V92.6992ZM42.2988 94.4992H42.7488C42.7488 93.7536 43.3532 93.1492 44.0988 93.1492V92.6992V92.2492C42.8562 92.2492 41.8488 93.2566 41.8488 94.4992H42.2988Z" fill="black"/>
<path d="M142.199 104.399L144.797 99.8992H139.601L142.199 104.399ZM189.899 104.399L192.497 99.8992H187.301L189.899 104.399ZM142.199 100.349H142.649V94.4992H142.199H141.749V100.349H142.199ZM143.999 92.6992V93.1492H188.099V92.6992V92.2492H143.999V92.6992ZM189.899 94.4992H189.449V100.349H189.899H190.349V94.4992H189.899ZM188.099 92.6992V93.1492C188.845 93.1492 189.449 93.7536 189.449 94.4992H189.899H190.349C190.349 93.2566 189.342 92.2492 188.099 92.2492V92.6992ZM142.199 94.4992H142.649C142.649 93.7536 143.254 93.1492 143.999 93.1492V92.6992V92.2492C142.757 92.2492 141.749 93.2566 141.749 94.4992H142.199Z" fill="black"/>
<path d="M42.2988 152.099L44.8969 147.599H39.7008L42.2988 152.099ZM42.2988 148.049H42.7488V137.699H42.2988H41.8488V148.049H42.2988Z" fill="black"/>
<path d="M66.5996 92.7016V84.6016" stroke="black" stroke-width="0.9"/>
<path d="M166.5 92.7016V84.6016" stroke="black" stroke-width="0.9"/>
<path d="M90 152.099L92.5981 147.599H87.4019L90 152.099ZM90 148.049H90.45V137.699H90H89.55V148.049H90Z" fill="black"/>
<path d="M142.199 152.099L144.797 147.599H139.601L142.199 152.099ZM142.199 148.049H142.649V137.699H142.199H141.749V148.049H142.199Z" fill="black"/>
<path d="M190.799 152.099L193.397 147.599H188.201L190.799 152.099ZM190.799 148.049H191.249V137.699H190.799H190.349V148.049H190.799Z" fill="black"/>
<path d="M116.549 40.9516V35.1016" stroke="black" stroke-width="0.9"/>
</svg>
