<svg width="288" height="202" viewBox="0 0 288 202" fill="none" xmlns="http://www.w3.org/2000/svg">
<rect x="15" y="61.1367" width="259" height="35" fill="url(#paint0_linear_489_1680)"/>
<rect x="15" y="110.137" width="259" height="34" fill="url(#paint1_linear_489_1680)"/>
<rect x="15" y="158.137" width="259" height="35" fill="url(#paint2_linear_489_1680)"/>
<path d="M121.288 26.8337C126.069 25.3625 130.773 25.5639 135.179 28.0849C138.178 29.7995 139.897 32.3491 139.725 35.9217C139.688 36.6861 139.725 37.4524 139.719 38.2187C139.71 39.9734 138.7 40.9809 136.891 40.9886C133.467 41.002 130.044 40.9928 126.62 40.9947L126.622 40.9923C123.328 40.9923 120.034 40.998 116.738 40.9923C114.831 40.9883 113.875 40.069 113.904 38.1706C113.933 36.3029 113.604 34.3951 114.36 32.5925C115.659 29.4968 118.2 27.7839 121.288 26.8337ZM119.166 15.3016C119.397 10.9474 122.785 7.80983 127.044 8.00897C131.61 8.22161 134.506 11.6621 134.268 16.593C134.066 20.7671 130.474 23.9587 126.209 23.7537C122.043 23.5525 118.927 19.8148 119.166 15.3016Z" fill="currentColor"/>
<path d="M98.5928 57.0791L98.5928 55.3596L93.0014 55.3535L102.861 45.4938L101.642 44.2743L91.7819 54.134V48.5365L90.0563 48.5426L90.0563 57.0791L98.5928 57.0791Z" fill="#96CE8A"/>
<path d="M155.146 57.0752L155.146 55.3557L160.737 55.3496L150.877 45.4899L152.097 44.2704L161.956 54.1301V48.5326L163.682 48.5387L163.682 57.0752L155.146 57.0752Z" fill="#96CE8A"/>
<g clip-path="url(#clip0_489_1680)">
<path d="M60.1016 108.014L60.1016 106.772L56.0649 106.768L63.183 99.6498L62.3026 98.7694L55.1845 105.887L55.1845 101.846L53.9388 101.851V108.014H60.1016Z" fill="#96CE8A"/>
</g>
<g clip-path="url(#clip1_489_1680)">
<path d="M82.9062 108.012L82.9062 106.77L86.9429 106.766L79.8248 99.6479L80.7052 98.7674L87.8233 105.886L87.8233 101.844L89.069 101.849V108.012H82.9062Z" fill="#96CE8A"/>
</g>
<path d="M67.5292 79.6036C71.0789 78.5132 74.5712 78.6625 77.843 80.531C80.0698 81.8018 81.3464 83.6915 81.2183 86.3395C81.1909 86.906 81.2185 87.474 81.2141 88.0419C81.2069 89.3424 80.457 90.0892 79.114 90.0949C76.572 90.1049 74.03 90.098 71.4879 90.0994L71.4893 90.0976C69.0437 90.0976 66.5979 90.1019 64.1508 90.0976C62.7345 90.0947 62.025 89.4133 62.0466 88.0063C62.0682 86.622 61.8236 85.2079 62.3849 83.8719C63.3493 81.5775 65.2363 80.3079 67.5292 79.6036ZM65.9532 71.0563C66.1245 67.8291 68.6405 65.5036 71.8029 65.6512C75.1928 65.8088 77.3435 68.3588 77.1664 72.0134C77.0166 75.1072 74.3492 77.4727 71.1825 77.3208C68.0892 77.1716 65.7762 74.4014 65.9532 71.0563Z" fill="currentColor"/>
<path d="M28.5975 176.405C30.5903 175.8 32.5508 175.883 34.3876 176.921C35.6377 177.627 36.3546 178.676 36.2827 180.147C36.2674 180.462 36.2827 180.778 36.2803 181.093C36.2762 181.816 35.8551 182.231 35.1012 182.234C33.6741 182.239 32.247 182.236 30.82 182.236L30.8208 182.235C29.4478 182.235 28.0746 182.238 26.7008 182.235C25.9058 182.234 25.5076 181.855 25.5197 181.074C25.5318 180.305 25.3942 179.519 25.7093 178.777C26.2508 177.502 27.3102 176.797 28.5975 176.405ZM42.2896 176.405C44.2824 175.8 46.2429 175.883 48.0798 176.921C49.3298 177.627 50.0467 178.676 49.9748 180.147C49.9595 180.462 49.9748 180.778 49.9724 181.093C49.9683 181.816 49.5472 182.231 48.7933 182.234C47.3662 182.239 45.9391 182.236 44.5121 182.236L44.5129 182.235C43.1399 182.235 41.7667 182.238 40.3929 182.235C39.5979 182.234 39.1997 181.855 39.2118 181.074C39.2239 180.305 39.0863 179.519 39.4014 178.777C39.9429 177.502 41.0023 176.797 42.2896 176.405ZM55.9817 176.405C57.9746 175.8 59.9351 175.883 61.7719 176.921C63.022 177.627 63.7388 178.676 63.667 180.147C63.6516 180.462 63.6669 180.778 63.6645 181.093C63.6604 181.816 63.2394 182.231 62.4854 182.234C61.0584 182.239 59.6313 182.236 58.2042 182.236L58.205 182.235C56.832 182.235 55.4589 182.238 54.0851 182.235C53.29 182.234 52.8919 181.855 52.9039 181.074C52.9161 180.305 52.7785 179.519 53.0936 178.777C53.635 177.502 54.6944 176.797 55.9817 176.405ZM30.997 168.654C32.9 168.742 34.1073 170.158 34.008 172.189C33.9239 173.907 32.4264 175.222 30.6486 175.137C28.912 175.054 27.6132 173.515 27.7126 171.657C27.8087 169.864 29.2216 168.572 30.997 168.654ZM44.6892 168.654C46.5921 168.742 47.7994 170.158 47.7001 172.189C47.616 173.907 46.1185 175.222 44.3407 175.137C42.6041 175.054 41.3053 173.515 41.4047 171.657C41.5009 169.864 42.9137 168.572 44.6892 168.654ZM58.3813 168.654C60.2842 168.742 61.4915 170.158 61.3922 172.189C61.3081 173.907 59.8106 175.222 58.0328 175.137C56.2962 175.054 54.9974 173.515 55.0968 171.657C55.193 169.864 56.6059 168.572 58.3813 168.654Z" fill="#57A07F"/>
<path d="M81.9237 176.405C83.9165 175.8 85.877 175.883 87.7138 176.921C88.9639 177.627 89.6807 178.676 89.6089 180.147C89.5935 180.462 89.6089 180.778 89.6065 181.093C89.6024 181.816 89.1813 182.231 88.4274 182.234C87.0003 182.239 85.5732 182.236 84.1461 182.236L84.1469 182.235C82.7739 182.235 81.4008 182.238 80.027 182.235C79.2319 182.234 78.8338 181.855 78.8459 181.074C78.858 180.305 78.7204 179.519 79.0355 178.777C79.5769 177.502 80.6364 176.797 81.9237 176.405ZM95.6158 176.405C97.6086 175.8 99.5691 175.883 101.406 176.921C102.656 177.627 103.373 178.676 103.301 180.147C103.286 180.462 103.301 180.778 103.299 181.093C103.294 181.816 102.873 182.231 102.119 182.234C100.692 182.239 99.2653 182.236 97.8383 182.236L97.8391 182.235C96.4661 182.235 95.0929 182.238 93.7191 182.235C92.9241 182.234 92.5259 181.855 92.538 181.074C92.5501 180.305 92.4125 179.519 92.7276 178.777C93.269 177.502 94.3285 176.797 95.6158 176.405ZM109.308 176.405C111.301 175.8 113.261 175.883 115.098 176.921C116.348 177.627 117.065 178.676 116.993 180.147C116.978 180.462 116.993 180.778 116.991 181.093C116.987 181.816 116.566 182.231 115.812 182.234C114.385 182.239 112.957 182.236 111.53 182.236L111.531 182.235C110.158 182.235 108.785 182.238 107.411 182.235C106.616 182.234 106.218 181.855 106.23 181.074C106.242 180.305 106.105 179.519 106.42 178.777C106.961 177.502 108.021 176.797 109.308 176.405ZM84.3232 168.654C86.2262 168.742 87.4335 170.158 87.3342 172.189C87.2501 173.907 85.7525 175.222 83.9747 175.137C82.2381 175.054 80.9394 173.515 81.0387 171.657C81.1349 169.864 82.5478 168.572 84.3232 168.654ZM98.0153 168.654C99.9183 168.742 101.126 170.158 101.026 172.189C100.942 173.907 99.4447 175.222 97.6669 175.137C95.9303 175.054 94.6315 173.515 94.7309 171.657C94.827 169.864 96.2399 168.572 98.0153 168.654ZM111.707 168.654C113.61 168.742 114.818 170.158 114.718 172.189C114.634 173.907 113.137 175.222 111.359 175.137C109.622 175.054 108.324 173.515 108.423 171.657C108.519 169.864 109.932 168.572 111.707 168.654Z" fill="#57A07F"/>
<path d="M41.687 128.712C44.4837 127.855 47.2352 127.973 49.813 129.441C51.5674 130.439 52.5732 131.924 52.4723 134.004C52.4507 134.45 52.4724 134.896 52.469 135.342C52.4633 136.364 51.8725 136.951 50.8144 136.955C48.8116 136.963 46.8088 136.958 44.806 136.959L44.807 136.957C42.8802 136.957 40.9532 136.961 39.0252 136.957C37.9093 136.955 37.3503 136.42 37.3673 135.314C37.3843 134.226 37.1916 133.115 37.6339 132.066C38.3937 130.263 39.8804 129.265 41.687 128.712ZM40.4453 121.996C40.5802 119.461 42.5626 117.633 45.0541 117.749C47.725 117.873 49.4194 119.877 49.2799 122.748C49.1619 125.179 47.0603 127.038 44.5653 126.918C42.1282 126.801 40.3058 124.625 40.4453 121.996Z" fill="#2B664B"/>
<path d="M94.4604 128.712C97.2571 127.855 100.009 127.973 102.586 129.441C104.341 130.439 105.347 131.924 105.246 134.004C105.224 134.45 105.246 134.896 105.242 135.342C105.237 136.364 104.646 136.951 103.588 136.955C101.585 136.963 99.5822 136.958 97.5794 136.959L97.5805 136.957C95.6536 136.957 93.7266 136.961 91.7986 136.957C90.6828 136.955 90.1238 136.42 90.1408 135.314C90.1578 134.226 89.965 133.115 90.4073 132.066C91.1671 130.263 92.6538 129.265 94.4604 128.712ZM93.2187 121.996C93.3537 119.461 95.336 117.633 97.8276 117.749C100.498 117.873 102.193 119.877 102.053 122.748C101.935 125.179 99.8337 127.038 97.3387 126.918C94.9016 126.801 93.0792 124.625 93.2187 121.996Z" fill="#2B664B"/>
<path d="M48.8027 153.689L47.9251 152.811L45.0683 155.662L45.0683 145.598L43.8235 145.598L43.8235 155.662L40.9666 152.805L40.089 153.689L44.4459 158.046L48.8027 153.689Z" fill="#96CE8A"/>
<path d="M102.127 153.689L101.249 152.811L98.3925 155.662L98.3925 145.598L97.1477 145.598L97.1477 155.662L94.2909 152.805L93.4133 153.689L97.7701 158.046L102.127 153.689Z" fill="#96CE8A"/>
<g clip-path="url(#clip2_489_1680)">
<path d="M171.475 108.016L171.475 106.774L167.438 106.77L174.556 99.6518L173.676 98.7714L166.558 105.889L166.558 101.848L165.312 101.853V108.016H171.475Z" fill="#96CE8A"/>
</g>
<g clip-path="url(#clip3_489_1680)">
<path d="M194.281 108.01L194.281 106.768L198.318 106.764L191.2 99.6459L192.08 98.7655L199.198 105.884L199.198 101.843L200.444 101.847V108.01H194.281Z" fill="#96CE8A"/>
</g>
<path d="M178.904 79.6036C182.454 78.5132 185.946 78.6625 189.218 80.531C191.445 81.8018 192.721 83.6915 192.593 86.3395C192.566 86.906 192.593 87.474 192.589 88.0419C192.582 89.3424 191.832 90.0892 190.489 90.0949C187.947 90.1049 185.405 90.098 182.863 90.0994L182.864 90.0976C180.419 90.0976 177.973 90.1019 175.526 90.0976C174.11 90.0947 173.4 89.4133 173.422 88.0063C173.443 86.622 173.199 85.2079 173.76 83.8719C174.724 81.5775 176.611 80.3079 178.904 79.6036ZM177.328 71.0563C177.5 67.8291 180.016 65.5036 183.178 65.6512C186.568 65.8088 188.718 68.3588 188.541 72.0134C188.392 75.1072 185.724 77.4727 182.558 77.3208C179.464 77.1716 177.151 74.4014 177.328 71.0563Z" fill="currentColor"/>
<path d="M139.973 176.405C141.965 175.8 143.926 175.883 145.763 176.921C147.013 177.627 147.73 178.676 147.658 180.147C147.642 180.462 147.658 180.778 147.655 181.093C147.651 181.816 147.23 182.231 146.476 182.234C145.049 182.239 143.622 182.236 142.195 182.236L142.196 182.235C140.823 182.235 139.45 182.238 138.076 182.235C137.281 182.234 136.883 181.855 136.895 181.074C136.907 180.305 136.769 179.519 137.084 178.777C137.626 177.502 138.685 176.797 139.973 176.405ZM153.665 176.405C155.657 175.8 157.618 175.883 159.455 176.921C160.705 177.627 161.422 178.676 161.35 180.147C161.334 180.462 161.35 180.778 161.347 181.093C161.343 181.816 160.922 182.231 160.168 182.234C158.741 182.239 157.314 182.236 155.887 182.236L155.888 182.235C154.515 182.235 153.142 182.238 151.768 182.235C150.973 182.234 150.575 181.855 150.587 181.074C150.599 180.305 150.461 179.519 150.776 178.777C151.318 177.502 152.377 176.797 153.665 176.405ZM167.357 176.405C169.35 175.8 171.31 175.883 173.147 176.921C174.397 177.627 175.114 178.676 175.042 180.147C175.027 180.462 175.042 180.778 175.04 181.093C175.035 181.816 174.614 182.231 173.86 182.234C172.433 182.239 171.006 182.236 169.579 182.236L169.58 182.235C168.207 182.235 166.834 182.238 165.46 182.235C164.665 182.234 164.267 181.855 164.279 181.074C164.291 180.305 164.153 179.519 164.469 178.777C165.01 177.502 166.069 176.797 167.357 176.405ZM142.372 168.654C144.275 168.742 145.482 170.158 145.383 172.189C145.299 173.907 143.801 175.222 142.024 175.137C140.287 175.054 138.988 173.515 139.088 171.657C139.184 169.864 140.597 168.572 142.372 168.654ZM156.064 168.654C157.967 168.742 159.174 170.158 159.075 172.189C158.991 173.907 157.493 175.222 155.716 175.137C153.979 175.054 152.68 173.515 152.78 171.657C152.876 169.864 154.289 168.572 156.064 168.654ZM169.756 168.654C171.659 168.742 172.867 170.158 172.767 172.189C172.683 173.907 171.186 175.222 169.408 175.137C167.671 175.054 166.372 173.515 166.472 171.657C166.568 169.864 167.981 168.572 169.756 168.654Z" fill="#57A07F"/>
<path d="M193.299 176.405C195.291 175.8 197.252 175.883 199.089 176.921C200.339 177.627 201.056 178.676 200.984 180.147C200.969 180.462 200.984 180.778 200.981 181.093C200.977 181.816 200.556 182.231 199.802 182.234C198.375 182.239 196.948 182.236 195.521 182.236L195.522 182.235C194.149 182.235 192.776 182.238 191.402 182.235C190.607 182.234 190.209 181.855 190.221 181.074C190.233 180.305 190.095 179.519 190.41 178.777C190.952 177.502 192.011 176.797 193.299 176.405ZM206.991 176.405C208.984 175.8 210.944 175.883 212.781 176.921C214.031 177.627 214.748 178.676 214.676 180.147C214.661 180.462 214.676 180.778 214.674 181.093C214.669 181.816 214.248 182.231 213.494 182.234C212.067 182.239 210.64 182.236 209.213 182.236L209.214 182.235C207.841 182.235 206.468 182.238 205.094 182.235C204.299 182.234 203.901 181.855 203.913 181.074C203.925 180.305 203.788 179.519 204.103 178.777C204.644 177.502 205.703 176.797 206.991 176.405ZM220.683 176.405C222.676 175.8 224.636 175.883 226.473 176.921C227.723 177.627 228.44 178.676 228.368 180.147C228.353 180.462 228.368 180.778 228.366 181.093C228.362 181.816 227.941 182.231 227.187 182.234C225.76 182.239 224.332 182.236 222.905 182.236L222.906 182.235C221.533 182.235 220.16 182.238 218.786 182.235C217.991 182.234 217.593 181.855 217.605 181.074C217.617 180.305 217.48 179.519 217.795 178.777C218.336 177.502 219.396 176.797 220.683 176.405ZM195.698 168.654C197.601 168.742 198.808 170.158 198.709 172.189C198.625 173.907 197.128 175.222 195.35 175.137C193.613 175.054 192.314 173.515 192.414 171.657C192.51 169.864 193.923 168.572 195.698 168.654ZM209.39 168.654C211.293 168.742 212.501 170.158 212.401 172.189C212.317 173.907 210.82 175.222 209.042 175.137C207.305 175.054 206.006 173.515 206.106 171.657C206.202 169.864 207.615 168.572 209.39 168.654ZM223.082 168.654C224.985 168.742 226.193 170.158 226.093 172.189C226.009 173.907 224.512 175.222 222.734 175.137C220.997 175.054 219.699 173.515 219.798 171.657C219.894 169.864 221.307 168.572 223.082 168.654Z" fill="#57A07F"/>
<path d="M153.062 128.712C155.859 127.855 158.61 127.973 161.188 129.441C162.942 130.439 163.948 131.924 163.847 134.004C163.826 134.45 163.847 134.896 163.844 135.342C163.838 136.364 163.247 136.951 162.189 136.955C160.187 136.963 158.184 136.958 156.181 136.959L156.182 136.957C154.255 136.957 152.328 136.961 150.4 136.957C149.284 136.955 148.725 136.42 148.742 135.314C148.759 134.226 148.567 133.115 149.009 132.066C149.769 130.263 151.255 129.265 153.062 128.712ZM151.82 121.996C151.955 119.461 153.938 117.633 156.429 117.749C159.1 117.873 160.794 119.877 160.655 122.748C160.537 125.179 158.435 127.038 155.94 126.918C153.503 126.801 151.681 124.625 151.82 121.996Z" fill="#2B664B"/>
<path d="M205.835 128.712C208.632 127.855 211.384 127.973 213.961 129.441C215.716 130.439 216.722 131.924 216.621 134.004C216.599 134.45 216.621 134.896 216.617 135.342C216.612 136.364 216.021 136.951 214.963 136.955C212.96 136.963 210.957 136.958 208.954 136.959L208.955 136.957C207.029 136.957 205.102 136.961 203.174 136.957C202.058 136.955 201.499 136.42 201.516 135.314C201.533 134.226 201.34 133.115 201.782 132.066C202.542 130.263 204.029 129.265 205.835 128.712ZM204.594 121.996C204.729 119.461 206.711 117.633 209.203 117.749C211.873 117.873 213.568 119.877 213.428 122.748C213.31 125.179 211.209 127.038 208.714 126.918C206.277 126.801 204.454 124.625 204.594 121.996Z" fill="#2B664B"/>
<path d="M160.178 153.689L159.3 152.811L156.443 155.662L156.443 145.598L155.198 145.598L155.198 155.662L152.342 152.805L151.464 153.689L155.821 158.046L160.178 153.689Z" fill="#96CE8A"/>
<path d="M213.502 153.689L212.624 152.811L209.768 155.662L209.768 145.598L208.523 145.598L208.523 155.662L205.666 152.805L204.788 153.689L209.145 158.046L213.502 153.689Z" fill="#96CE8A"/>
<path d="M146.549 20.2705H148.409L150.2 23.6531H150.276L152.068 20.2705H153.928L151.063 25.3483V28.125H149.414V25.3483L146.549 20.2705ZM161.578 24.1977C161.578 25.0543 161.416 25.783 161.091 26.3838C160.769 26.9847 160.329 27.4436 159.772 27.7607C159.217 28.0751 158.593 28.2324 157.9 28.2324C157.202 28.2324 156.575 28.0739 156.021 27.7568C155.466 27.4398 155.027 26.9808 154.705 26.38C154.383 25.7791 154.222 25.0517 154.222 24.1977C154.222 23.3412 154.383 22.6125 154.705 22.0116C155.027 21.4108 155.466 20.9531 156.021 20.6386C156.575 20.3216 157.202 20.1631 157.9 20.1631C158.593 20.1631 159.217 20.3216 159.772 20.6386C160.329 20.9531 160.769 21.4108 161.091 22.0116C161.416 22.6125 161.578 23.3412 161.578 24.1977ZM159.894 24.1977C159.894 23.6429 159.811 23.175 159.645 22.794C159.481 22.4131 159.25 22.1241 158.951 21.9273C158.652 21.7304 158.301 21.632 157.9 21.632C157.499 21.632 157.148 21.7304 156.849 21.9273C156.55 22.1241 156.317 22.4131 156.151 22.794C155.987 23.175 155.906 23.6429 155.906 24.1977C155.906 24.7526 155.987 25.2205 156.151 25.6014C156.317 25.9824 156.55 26.2713 156.849 26.4682C157.148 26.6651 157.499 26.7635 157.9 26.7635C158.301 26.7635 158.652 26.6651 158.951 26.4682C159.25 26.2713 159.481 25.9824 159.645 25.6014C159.811 25.2205 159.894 24.7526 159.894 24.1977ZM167.66 20.2705H169.32V25.3713C169.32 25.944 169.183 26.4452 168.91 26.8747C168.639 27.3043 168.259 27.6392 167.771 27.8795C167.282 28.1173 166.714 28.2362 166.064 28.2362C165.412 28.2362 164.842 28.1173 164.354 27.8795C163.865 27.6392 163.486 27.3043 163.215 26.8747C162.944 26.4452 162.808 25.944 162.808 25.3713V20.2705H164.469V25.2294C164.469 25.5286 164.534 25.7945 164.664 26.0271C164.797 26.2598 164.984 26.4426 165.224 26.5756C165.465 26.7085 165.745 26.775 166.064 26.775C166.386 26.775 166.666 26.7085 166.904 26.5756C167.144 26.4426 167.33 26.2598 167.46 26.0271C167.593 25.7945 167.66 25.5286 167.66 25.2294V20.2705Z" fill="currentColor"/>
<path opacity="0.5" d="M248.498 81.7988V74.9261H249.951V80.6008H252.897V81.7988H248.498ZM256.376 74.9261V81.7988H254.922V76.3053H254.882L253.308 77.292V76.0033L255.01 74.9261H256.376Z" fill="currentColor"/>
<path opacity="0.5" d="M248.498 130.4V123.528H249.951V129.202H252.897V130.4H248.498ZM253.819 130.4V129.353L256.266 127.088C256.474 126.887 256.648 126.706 256.789 126.545C256.932 126.383 257.041 126.226 257.115 126.071C257.188 125.915 257.225 125.746 257.225 125.565C257.225 125.363 257.18 125.19 257.088 125.044C256.996 124.897 256.871 124.784 256.712 124.706C256.553 124.625 256.373 124.585 256.172 124.585C255.961 124.585 255.778 124.627 255.621 124.712C255.465 124.797 255.344 124.919 255.259 125.078C255.174 125.237 255.131 125.426 255.131 125.645H253.752C253.752 125.196 253.854 124.805 254.057 124.474C254.261 124.143 254.546 123.887 254.913 123.706C255.28 123.524 255.703 123.434 256.182 123.434C256.674 123.434 257.102 123.521 257.467 123.695C257.834 123.868 258.119 124.107 258.323 124.414C258.526 124.72 258.628 125.071 258.628 125.467C258.628 125.727 258.577 125.983 258.474 126.236C258.373 126.489 258.193 126.769 257.933 127.078C257.674 127.385 257.308 127.753 256.836 128.182L255.833 129.165V129.212H258.719V130.4H253.819Z" fill="currentColor"/>
<path opacity="0.5" d="M248.498 179V172.127H249.951V177.802H252.897V179H248.498ZM256.36 179.094C255.858 179.094 255.412 179.008 255.021 178.836C254.631 178.661 254.324 178.422 254.098 178.117C253.874 177.811 253.759 177.457 253.752 177.057H255.215C255.224 177.225 255.279 177.372 255.38 177.5C255.483 177.625 255.619 177.723 255.789 177.792C255.959 177.861 256.15 177.896 256.363 177.896C256.584 177.896 256.78 177.857 256.95 177.778C257.12 177.7 257.253 177.592 257.35 177.453C257.446 177.314 257.494 177.154 257.494 176.973C257.494 176.79 257.442 176.627 257.339 176.486C257.239 176.343 257.093 176.231 256.903 176.151C256.715 176.07 256.492 176.03 256.232 176.03H255.591V174.963H256.232C256.451 174.963 256.645 174.925 256.813 174.849C256.983 174.773 257.115 174.668 257.209 174.533C257.303 174.397 257.35 174.238 257.35 174.057C257.35 173.885 257.308 173.734 257.225 173.604C257.145 173.472 257.031 173.369 256.883 173.295C256.738 173.221 256.568 173.184 256.373 173.184C256.176 173.184 255.996 173.22 255.833 173.292C255.669 173.361 255.539 173.461 255.44 173.59C255.342 173.72 255.289 173.872 255.282 174.047H253.89C253.896 173.651 254.009 173.302 254.229 173C254.448 172.698 254.743 172.462 255.115 172.292C255.488 172.119 255.91 172.033 256.38 172.033C256.854 172.033 257.269 172.119 257.625 172.292C257.98 172.464 258.257 172.697 258.454 172.99C258.653 173.281 258.751 173.607 258.749 173.97C258.751 174.354 258.631 174.675 258.39 174.933C258.15 175.19 257.838 175.353 257.454 175.423V175.476C257.959 175.541 258.344 175.717 258.608 176.003C258.874 176.287 259.006 176.643 259.004 177.07C259.006 177.462 258.893 177.81 258.665 178.114C258.439 178.418 258.127 178.658 257.729 178.832C257.331 179.007 256.874 179.094 256.36 179.094Z" fill="currentColor"/>
<defs>
<linearGradient id="paint0_linear_489_1680" x1="15" y1="78.6367" x2="274" y2="78.6367" gradientUnits="userSpaceOnUse">
<stop stop-color="#D2FB95" stop-opacity="0"/>
<stop offset="1" stop-color="#D2FB95"/>
</linearGradient>
<linearGradient id="paint1_linear_489_1680" x1="15" y1="127.137" x2="274" y2="127.137" gradientUnits="userSpaceOnUse">
<stop stop-color="#D2FB95" stop-opacity="0"/>
<stop offset="1" stop-color="#D2FB95"/>
</linearGradient>
<linearGradient id="paint2_linear_489_1680" x1="15" y1="175.637" x2="274" y2="175.637" gradientUnits="userSpaceOnUse">
<stop stop-color="#D2FB95" stop-opacity="0"/>
<stop offset="1" stop-color="#D2FB95"/>
</linearGradient>
<clipPath id="clip0_489_1680">
<rect width="14.9409" height="14.9409" fill="white" transform="translate(68.9062 103.611) rotate(135)"/>
</clipPath>
<clipPath id="clip1_489_1680">
<rect width="14.9409" height="14.9409" fill="white" transform="matrix(0.707107 0.707107 0.707107 -0.707107 74.1016 103.609)"/>
</clipPath>
<clipPath id="clip2_489_1680">
<rect width="14.9409" height="14.9409" fill="white" transform="translate(180.279 103.613) rotate(135)"/>
</clipPath>
<clipPath id="clip3_489_1680">
<rect width="14.9409" height="14.9409" fill="white" transform="matrix(0.707107 0.707107 0.707107 -0.707107 185.477 103.607)"/>
</clipPath>
</defs>
</svg>
