<svg width="20" height="20" viewBox="0 0 20 20" fill="none" xmlns="http://www.w3.org/2000/svg">
<path d="M10 5.83333C7.7 5.83333 5.83333 7.7 5.83333 10C5.83333 12.3 7.7 14.1667 10 14.1667C12.3 14.1667 14.1667 12.3 14.1667 10C14.1667 7.7 12.3 5.83333 10 5.83333ZM1.66667 10.8333H3.33333C3.79167 10.8333 4.16667 10.4583 4.16667 10C4.16667 9.54167 3.79167 9.16667 3.33333 9.16667H1.66667C1.20833 9.16667 0.833334 9.54167 0.833334 10C0.833334 10.4583 1.20833 10.8333 1.66667 10.8333ZM16.6667 10.8333H18.3333C18.7917 10.8333 19.1667 10.4583 19.1667 10C19.1667 9.54167 18.7917 9.16667 18.3333 9.16667H16.6667C16.2083 9.16667 15.8333 9.54167 15.8333 10C15.8333 10.4583 16.2083 10.8333 16.6667 10.8333ZM9.16667 1.66667V3.33333C9.16667 3.79167 9.54167 4.16667 10 4.16667C10.4583 4.16667 10.8333 3.79167 10.8333 3.33333V1.66667C10.8333 1.20833 10.4583 0.833334 10 0.833334C9.54167 0.833334 9.16667 1.20833 9.16667 1.66667ZM9.16667 16.6667V18.3333C9.16667 18.7917 9.54167 19.1667 10 19.1667C10.4583 19.1667 10.8333 18.7917 10.8333 18.3333V16.6667C10.8333 16.2083 10.4583 15.8333 10 15.8333C9.54167 15.8333 9.16667 16.2083 9.16667 16.6667ZM4.99167 3.81667C4.66667 3.49167 4.13333 3.49167 3.81667 3.81667C3.49167 4.14167 3.49167 4.675 3.81667 4.99167L4.7 5.875C5.025 6.2 5.55833 6.2 5.875 5.875C6.19167 5.55 6.2 5.01667 5.875 4.7L4.99167 3.81667ZM15.3 14.125C14.975 13.8 14.4417 13.8 14.125 14.125C13.8 14.45 13.8 14.9833 14.125 15.3L15.0083 16.1833C15.3333 16.5083 15.8667 16.5083 16.1833 16.1833C16.5083 15.8583 16.5083 15.325 16.1833 15.0083L15.3 14.125ZM16.1833 4.99167C16.5083 4.66667 16.5083 4.13333 16.1833 3.81667C15.8583 3.49167 15.325 3.49167 15.0083 3.81667L14.125 4.7C13.8 5.025 13.8 5.55833 14.125 5.875C14.45 6.19167 14.9833 6.2 15.3 5.875L16.1833 4.99167ZM5.875 15.3C6.2 14.975 6.2 14.4417 5.875 14.125C5.55 13.8 5.01667 13.8 4.7 14.125L3.81667 15.0083C3.49167 15.3333 3.49167 15.8667 3.81667 16.1833C4.14167 16.5 4.675 16.5083 4.99167 16.1833L5.875 15.3Z" fill="currentColor"/>
</svg>
