<svg width="134" height="28" viewBox="0 0 134 28" fill="none" xmlns="http://www.w3.org/2000/svg">
<path d="M20.0352 24.0811L14.2939 27.3984L14.2783 22.5996L14.2744 21.5732L14.293 21.584V20.7939L20.0127 17.4893L20.0352 24.0811ZM12.8418 20.8057L12.8477 22.5996L12.8633 27.3887L7.17871 24.0781L7.15625 17.4951L12.8418 20.8057ZM56.8262 8.33789C58.1902 8.33795 59.408 8.63168 60.4785 9.21875C61.5662 9.80582 62.4032 10.6438 62.9902 11.7314C63.5946 12.8021 63.8974 14.0369 63.8975 15.4355C63.8975 15.9534 63.863 16.4197 63.7939 16.834H53.3027C53.3891 17.8701 53.7517 18.6824 54.3906 19.2695C55.0296 19.8566 55.8156 20.1504 56.748 20.1504C58.095 20.1504 59.0532 19.571 59.623 18.4141H63.5342C63.1197 19.7955 62.3256 20.936 61.1514 21.834C59.9772 22.7145 58.5355 23.1542 56.8262 23.1543C55.4447 23.1543 54.2009 22.8524 53.0957 22.248C52.0078 21.6264 51.1529 20.7543 50.5312 19.6318C49.9269 18.5094 49.625 17.2139 49.625 15.7461C49.6251 14.2612 49.9269 12.9573 50.5312 11.835C51.1356 10.7126 51.9824 9.84949 53.0703 9.24512C54.1582 8.64082 55.4103 8.33789 56.8262 8.33789ZM71.5176 8.33789C73.2271 8.3379 74.5915 8.77037 75.6104 9.63379C76.6289 10.4799 77.1903 11.6279 77.2939 13.0781H73.8232C73.7714 12.5084 73.5293 12.0595 73.0977 11.7314C72.6832 11.3861 72.122 11.2139 71.4141 11.2139C70.7579 11.2139 70.2484 11.3344 69.8857 11.5762C69.5405 11.8179 69.3673 12.1544 69.3672 12.5859C69.3672 13.0694 69.6093 13.4412 70.0928 13.7002C70.5763 13.942 71.3278 14.1921 72.3467 14.4512C73.3827 14.7102 74.2377 14.9776 74.9111 15.2539C75.5846 15.5302 76.163 15.9627 76.6465 16.5498C77.1471 17.1196 77.4066 17.8795 77.4238 18.8291C77.4238 19.6579 77.1898 20.4005 76.7236 21.0566C76.2747 21.7126 75.6189 22.2305 74.7559 22.6104C73.9097 22.973 72.9161 23.1543 71.7764 23.1543C70.6022 23.1543 69.5487 22.9476 68.6162 22.5332C67.6838 22.1015 66.9412 21.523 66.3887 20.7979C65.8534 20.0726 65.5596 19.2693 65.5078 18.3887H69.1602C69.2292 18.9412 69.4967 19.3991 69.9629 19.7617C70.4464 20.1244 71.043 20.3057 71.751 20.3057C72.4416 20.3056 72.9766 20.1669 73.3564 19.8906C73.7535 19.6144 73.9521 19.2607 73.9521 18.8291C73.9521 18.363 73.7108 18.0175 73.2275 17.793C72.7613 17.5512 72.0097 17.2919 70.9736 17.0156C69.903 16.7566 69.0218 16.4892 68.3311 16.2129C67.6577 15.9366 67.071 15.5131 66.5703 14.9434C66.0868 14.3735 65.8447 13.6047 65.8447 12.6377C65.8448 11.8435 66.0697 11.118 66.5186 10.4619C66.9848 9.8059 67.6413 9.28803 68.4873 8.9082C69.3507 8.52839 70.3607 8.33789 71.5176 8.33789ZM85.374 8.33789C87.0834 8.33797 88.4471 8.77046 89.4658 9.63379C90.4846 10.4799 91.0457 11.6278 91.1494 13.0781H87.6787C87.6268 12.5085 87.3847 12.0595 86.9531 11.7314C86.5387 11.3863 85.9773 11.2139 85.2695 11.2139C84.6135 11.2139 84.1038 11.3345 83.7412 11.5762C83.3962 11.8178 83.2237 12.1546 83.2236 12.5859C83.2236 13.0694 83.4657 13.4412 83.9492 13.7002C84.4327 13.9419 85.1837 14.1922 86.2021 14.4512C87.2381 14.7102 88.0932 14.9777 88.7666 15.2539C89.4401 15.5302 90.0184 15.9627 90.502 16.5498C91.0027 17.1197 91.262 17.8793 91.2793 18.8291C91.2793 19.6579 91.0463 20.4005 90.5801 21.0566C90.1311 21.7128 89.4747 22.2304 88.6113 22.6104C87.7652 22.973 86.7724 23.1543 85.6328 23.1543C84.4587 23.1543 83.4051 22.9476 82.4727 22.5332C81.5403 22.1016 80.7977 21.523 80.2451 20.7979C79.7098 20.0726 79.4161 19.2693 79.3643 18.3887H83.0166C83.0857 18.9412 83.3531 19.3991 83.8193 19.7617C84.3028 20.1243 84.8986 20.3056 85.6064 20.3057C86.2972 20.3057 86.833 20.1669 87.2129 19.8906C87.6098 19.6144 87.8085 19.2606 87.8086 18.8291C87.8086 18.3629 87.5665 18.0175 87.083 17.793C86.6168 17.5512 85.8652 17.2919 84.8291 17.0156C83.7587 16.7566 82.8781 16.4891 82.1875 16.2129C81.514 15.9366 80.9266 15.5132 80.4258 14.9434C79.9424 14.3735 79.7012 13.6046 79.7012 12.6377C79.7013 11.8435 79.9251 11.118 80.374 10.4619C80.8402 9.80582 81.4967 9.28808 82.3428 8.9082C83.2062 8.5283 84.217 8.33789 85.374 8.33789ZM100.266 8.33789C101.63 8.33789 102.847 8.63166 103.918 9.21875C105.006 9.80587 105.844 10.6436 106.431 11.7314C107.035 12.8021 107.337 14.0369 107.337 15.4355C107.337 15.9534 107.302 16.4196 107.233 16.834H96.7432C96.8295 17.8701 97.1921 18.6824 97.8311 19.2695C98.4698 19.8564 99.2553 20.1503 100.188 20.1504C101.534 20.1504 102.494 19.5711 103.063 18.4141H106.975C106.56 19.7955 105.766 20.936 104.592 21.834C103.418 22.7147 101.975 23.1543 100.266 23.1543C98.8843 23.1543 97.6412 22.8523 96.5361 22.248C95.4482 21.6264 94.5933 20.7542 93.9717 19.6318C93.3673 18.5094 93.0645 17.2139 93.0645 15.7461C93.0645 14.2612 93.3673 12.9573 93.9717 11.835C94.576 10.7127 95.422 9.84945 96.5098 9.24512C97.5977 8.64073 98.8496 8.3379 100.266 8.33789ZM125.56 8.33789C126.63 8.33791 127.562 8.5547 128.356 8.98633C129.168 9.41804 129.816 9.96196 130.3 10.6182V8.57129H133.952V22.9219H130.3V20.8232C129.834 21.4967 129.185 22.0579 128.356 22.5068C127.545 22.9385 126.604 23.1543 125.533 23.1543C124.325 23.1542 123.219 22.8442 122.218 22.2227C121.234 21.601 120.447 20.7288 119.86 19.6064C119.29 18.4667 119.006 17.1622 119.006 15.6943C119.006 14.2439 119.291 12.9573 119.86 11.835C120.447 10.7126 121.234 9.84951 122.218 9.24512C123.219 8.64073 124.334 8.33789 125.56 8.33789ZM48.1699 7.76855H43.3525V22.9219H39.7256V7.76855H34.9082V4.8418H48.1699V7.76855ZM117.755 12.1719H116.797C115.657 12.1719 114.793 12.4393 114.206 12.9746C113.636 13.5099 113.352 14.4428 113.352 15.7725V22.9219H109.725V8.57129H113.352V10.7988C113.818 10.0391 114.423 9.44339 115.165 9.01172C115.925 8.58014 116.788 8.36427 117.755 8.36426V12.1719ZM126.492 11.5244C125.819 11.5244 125.197 11.6885 124.627 12.0166C124.057 12.3446 123.591 12.828 123.229 13.4668C122.883 14.0884 122.71 14.8311 122.71 15.6943C122.71 16.5576 122.883 17.3175 123.229 17.9736C123.591 18.6125 124.057 19.1048 124.627 19.4502C125.214 19.7956 125.836 19.9688 126.492 19.9688C127.166 19.9687 127.796 19.8046 128.383 19.4766C128.97 19.1313 129.436 18.6478 129.781 18.0264C130.127 17.3874 130.3 16.6268 130.3 15.7461C130.3 14.8656 130.127 14.1147 129.781 13.4932C129.436 12.8542 128.97 12.3701 128.383 12.042C127.796 11.6967 127.165 11.5245 126.492 11.5244ZM12.8623 12.4795V19.1133L7.49707 16.0371L7.14648 15.833V9.20312L12.8623 12.4795ZM20.0088 15.8359L14.293 19.1133V12.4795L19.4277 9.53516L20.0088 9.20312V15.8359ZM5.71582 8.38281V15.0156L0 11.7393V5.10547L5.71582 8.38281ZM27.1553 11.7393L21.4395 15.0156V8.38281L27.1553 5.10547V11.7393ZM56.7217 11.3174C55.8239 11.3175 55.0639 11.594 54.4424 12.1465C53.8383 12.6818 53.4672 13.4327 53.3291 14.3994H60.1416C60.1243 13.467 59.787 12.7244 59.1309 12.1719C58.4747 11.6021 57.6714 11.3174 56.7217 11.3174ZM100.162 11.3174C99.2642 11.3174 98.5045 11.5939 97.8828 12.1465C97.2785 12.6818 96.9067 13.4325 96.7686 14.3994H103.581C103.564 13.4671 103.227 12.7244 102.571 12.1719C101.915 11.602 101.112 11.3174 100.162 11.3174ZM19.2842 7.9668L18.5674 8.37891L13.5771 11.2393L7.87012 7.9668L13.5771 4.69531L19.2842 7.9668ZM12.1377 3.87012L6.43066 7.14258L2.52441 4.90234L0.723633 3.87012L6.43066 0.597656L12.1377 3.87012ZM26.4316 3.87012L25.1533 4.60254L20.7236 7.14258L15.0166 3.87012L20.7236 0.597656L26.4316 3.87012Z" fill="currentColor"/>
</svg>
