<svg width="28" height="28" viewBox="0 0 28 28" fill="none" xmlns="http://www.w3.org/2000/svg">
<path d="M20.0352 24.0811L14.2939 27.3984L14.2783 22.5996L14.2744 21.5732L14.293 21.584V20.7939L20.0127 17.4893L20.0352 24.0811ZM12.8418 20.8057L12.8477 22.5996L12.8633 27.3887L7.17871 24.0781L7.15625 17.4951L12.8418 20.8057ZM12.8623 12.4795V19.1133L7.49707 16.0371L7.14648 15.833V9.20312L12.8623 12.4795ZM20.0088 15.8359L14.293 19.1133V12.4795L19.4277 9.53516L20.0088 9.20312V15.8359ZM5.71582 8.38281V15.0156L0 11.7393V5.10547L5.71582 8.38281ZM27.1553 11.7393L21.4395 15.0156V8.38281L27.1553 5.10547V11.7393ZM19.2842 7.9668L18.5674 8.37891L13.5771 11.2393L7.87012 7.9668L13.5771 4.69531L19.2842 7.9668ZM12.1377 3.87012L6.43066 7.14258L2.52441 4.90234L0.723633 3.87012L6.43066 0.597656L12.1377 3.87012ZM26.4316 3.87012L25.1533 4.60254L20.7236 7.14258L15.0166 3.87012L20.7236 0.597656L26.4316 3.87012Z" fill="currentColor"/>
</svg>
