<svg width="48" height="48" viewBox="0 0 48 48" fill="none" xmlns="http://www.w3.org/2000/svg">
  <circle cx="24" cy="24" r="24" fill="#2775CA"/>
  <path d="M24 6C14.0589 6 6 14.0589 6 24C6 33.9411 14.0589 42 24 42C33.9411 42 42 33.9411 42 24C42 14.0589 33.9411 6 24 6ZM24 38.4C16.0471 38.4 9.6 31.9529 9.6 24C9.6 16.0471 16.0471 9.6 24 9.6C31.9529 9.6 38.4 16.0471 38.4 24C38.4 31.9529 31.9529 38.4 24 38.4Z" fill="white"/>
  <path d="M27.6 26.4C27.6 24.6 26.4 24 24 23.7C22.2 23.4 21.9 22.9 21.9 22.1C21.9 21.3 22.5 20.7 23.7 20.7C24.8 20.7 25.4 21.1 25.7 22C25.8 22.2 26 22.3 26.2 22.3H27.3C27.6 22.3 27.8 22.1 27.8 21.8C27.5 20.4 26.4 19.3 24.9 19.1V17.7C24.9 17.4 24.7 17.2 24.4 17.2H23.5C23.2 17.2 23 17.4 23 17.7V19.1C21.2 19.4 20 20.7 20 22.3C20 24 21.2 24.7 23.6 25C25.3 25.3 25.8 25.7 25.8 26.6C25.8 27.5 24.9 28.2 23.8 28.2C22.3 28.2 21.8 27.5 21.6 26.6C21.5 26.4 21.3 26.2 21.1 26.2H19.9C19.6 26.2 19.4 26.4 19.4 26.7C19.6 28.4 20.7 29.5 23 29.9V31.3C23 31.6 23.2 31.8 23.5 31.8H24.4C24.7 31.8 24.9 31.6 24.9 31.3V29.9C26.7 29.5 27.9 28.1 27.9 26.4H27.6Z" fill="white"/>
</svg>
