<svg width="32" height="32" viewBox="0 0 32 32" fill="none" xmlns="http://www.w3.org/2000/svg">
  <circle cx="16" cy="16" r="16" fill="url(#solana-gradient)"/>
  <path d="M10.0371 20.5185C10.1519 20.4037 10.3093 20.3389 10.4741 20.3389H24.4C24.6593 20.3389 24.7889 20.6537 24.6056 20.837L22.2926 23.15C22.1778 23.2648 22.0204 23.3296 21.8556 23.3296H7.92963C7.67037 23.3296 7.54074 23.0148 7.72407 22.8315L10.0371 20.5185Z" fill="white"/>
  <path d="M10.0371 8.84074C10.1593 8.72593 10.3167 8.66113 10.4741 8.66113H24.4C24.6593 8.66113 24.7889 8.97594 24.6056 9.15927L22.2926 11.4722C22.1778 11.587 22.0204 11.6518 21.8556 11.6518H7.92963C7.67037 11.6518 7.54074 11.337 7.72407 11.1537L10.0371 8.84074Z" fill="white"/>
  <path d="M22.2926 14.6315C22.1778 14.5167 22.0204 14.4519 21.8556 14.4519H7.92963C7.67037 14.4519 7.54074 14.7667 7.72407 14.95L10.0371 17.263C10.1519 17.3778 10.3093 17.4426 10.4741 17.4426H24.4C24.6593 17.4426 24.7889 17.1278 24.6056 16.9445L22.2926 14.6315Z" fill="white"/>
  <defs>
    <linearGradient id="solana-gradient" x1="0" y1="32" x2="32" y2="0" gradientUnits="userSpaceOnUse">
      <stop stop-color="#9945FF"/>
      <stop offset="0.5" stop-color="#14F195"/>
      <stop offset="1" stop-color="#00C2FF"/>
    </linearGradient>
  </defs>
</svg>
