<svg width="14" height="14" viewBox="0 0 14 14" fill="none" xmlns="http://www.w3.org/2000/svg">
<path fill-rule="evenodd" clip-rule="evenodd" d="M12.7383 6.49165L12.6046 7.91221C12.3843 10.2529 12.2742 11.4232 11.5843 12.1289C10.8944 12.8346 9.8605 12.8346 7.79264 12.8346H6.20606C4.1382 12.8346 3.10426 12.8346 2.4144 12.1289C1.72454 11.4232 1.6144 10.2529 1.3941 7.91221L1.2604 6.49165C1.1554 5.37596 1.1029 4.81811 1.29376 4.58751C1.397 4.46277 1.5374 4.38634 1.68751 4.37315C1.965 4.34878 2.31348 4.7455 3.01044 5.53893C3.37088 5.94926 3.5511 6.15442 3.75215 6.18619C3.86355 6.2038 3.97705 6.1857 4.07992 6.13393C4.26556 6.04051 4.38934 5.78687 4.63689 5.2796L5.94173 2.6058C6.40951 1.64725 6.6434 1.16797 6.99935 1.16797C7.3553 1.16797 7.58919 1.64725 8.05697 2.6058L9.36181 5.2796C9.60936 5.78687 9.73313 6.04051 9.91878 6.13393C10.0216 6.1857 10.1351 6.2038 10.2465 6.18619C10.4476 6.15442 10.6278 5.94926 10.9883 5.53893C11.6852 4.7455 12.0337 4.34878 12.3112 4.37315C12.4613 4.38634 12.6017 4.46277 12.7049 4.58751C12.8958 4.81811 12.8433 5.37596 12.7383 6.49165ZM4.81185 10.5013C4.81185 10.2597 5.00772 10.0638 5.24935 10.0638H8.74935C8.99097 10.0638 9.18685 10.2597 9.18685 10.5013C9.18685 10.7429 8.99097 10.9388 8.74935 10.9388H5.24935C5.00772 10.9388 4.81185 10.7429 4.81185 10.5013Z" fill="#66AAF9"/>
</svg>
